<svg width="1500" height="2436" viewBox="0 0 1500 2436" fill="none" xmlns="http://www.w3.org/2000/svg">
<path fill-rule="evenodd" clip-rule="evenodd" d="M625.693 1575.31L708.313 1737.06L657.203 1564.85L478.543 1128.99L625.693 1575.31Z" fill="#EAEAEA"/>
<path fill-rule="evenodd" clip-rule="evenodd" d="M1139.57 1336.49L1004.66 955.09L1110.4 1346.46L1160.52 1462.1L1139.57 1336.49Z" fill="#EAEAEA"/>
<path fill-rule="evenodd" clip-rule="evenodd" d="M918.583 1928.19L611.543 1164.22L886.633 1939.43L1001.6 2192.34L918.583 1928.19Z" fill="#EAEAEA"/>
<path fill-rule="evenodd" clip-rule="evenodd" d="M1165.93 1897.28L1284.86 2189.52L1194.59 1890.09L924.082 1153.66L1165.93 1897.28Z" fill="#EAEAEA" stroke="white" stroke-miterlimit="10"/>
<path fill-rule="evenodd" clip-rule="evenodd" d="M1136.55 2114.22L823.742 1283.21L1105.29 2120.73L1166.55 2282.93L1136.55 2114.22Z" fill="#EAEAEA"/>
<path d="M496.232 1128.1C428.262 1083.07 397.982 1045.71 383.402 977.53C378.822 987.66 375.012 994.64 369.222 1011.06C348.602 964.64 364.882 897.31 389.542 851.59C422.392 872.62 457.892 902.68 475.872 929.95C489.382 950.44 513.712 1016.78 519.292 1065.59C508.892 1056.44 499.722 1047.68 486.392 1035.34C489.902 1060.65 494.202 1096.95 496.222 1128.1H496.232Z" fill="#FE5900"/>
<path d="M483.864 1088.49C425.714 1042.89 403.354 1006.37 387.824 941.92C382.824 951.85 376.154 963.64 370.254 978.24C363.014 928.24 378.234 899.79 393.174 860.86C422.184 881.4 435.834 894 453.494 917.26C467.564 935.8 489.194 977 496.324 1022.89C487.304 1013.8 481.224 1009.21 469.644 996.98C473.844 1020.81 480.584 1059.29 483.874 1088.49H483.864Z" fill="#FF8300"/>
<path d="M446.411 1018.8C410.561 990.87 403.501 956.57 394.001 917C391.491 923.23 386.081 931.13 383.361 938.83C378.961 908.13 387.521 895.99 396.801 872.05C411.971 885.2 423.761 894.94 434.631 909.2C443.291 920.57 455.101 950.96 459.431 979.14C453.871 973.57 445.411 965.58 438.271 958.09C444.091 974.66 444.421 1000.86 446.401 1018.8H446.411Z" fill="#FFEE86"/>
<path d="M997.282 952.66C1025.54 874.56 1027.14 826.24 995.992 763.74C1006.26 768.77 1013.89 771.82 1029.17 781C1016.92 731.7 960.482 689.36 910.772 669.19C896.642 706.37 886.042 752.27 888.342 784.94C890.062 809.49 911.872 876.69 938.232 918.37C941.122 904.66 943.222 892.02 946.532 873.96C959.692 895.96 979.172 927.04 997.272 952.67L997.282 952.66Z" fill="#FE5900"/>
<path d="M982.452 913.89C1002.13 841.53 997.632 798.88 969.652 738.7C980.152 743.31 993.232 748.31 1007.45 756C981.722 712.35 950.892 699.73 913.642 678.72C902.422 713.09 899.002 731.56 899.012 760.88C899.012 784.26 907.112 830.11 930.322 870.48C932.092 857.69 934.262 850.26 936.182 833.39C947.812 854.66 966.642 889 982.452 913.9V913.89Z" fill="#FF8300"/>
<path d="M969.492 835.79C981.742 791.33 965.842 760.06 948.632 723.14C954.702 726.43 964.242 729.19 971.422 733.49C955.582 706.72 940.702 702.63 917.712 689.78C913.372 709.64 909.702 724.69 909.672 742.7C909.652 757.06 919.092 788.27 933.382 813.03C934.492 805.17 936.502 793.58 937.712 783.22C943.372 799.84 959.762 820.53 969.502 835.81L969.492 835.79Z" fill="#FFEE86"/>
<path d="M303.846 747.51C290.986 711.52 245.036 571.19 282.956 556.72C321.706 541.93 370.226 668.07 389.706 715.84C400.126 741.39 425.546 804.84 397.496 830.68C388.206 834.92 380.026 837.92 369.946 841.32C329.466 842 310.576 768.11 303.846 747.52V747.51Z" fill="#82817F"/>
<path d="M299.016 724.58C290.716 696.77 260.316 589.78 276.946 593.48C293.946 597.26 324.616 695.92 336.746 733.66C341.366 748.03 350.746 777.48 351.696 795.83C352.136 804.3 344.026 810.68 335.866 808.35L335.736 808.31C317.016 794.77 303.466 740.27 299.016 724.58Z" fill="#9E9E9E"/>
<path d="M358.785 839.31C363.385 847.34 370.015 859.23 374.165 865.08C377.775 870.17 382.825 873.93 388.695 871.77L402.035 866.85C407.895 864.69 409.285 858.55 408.745 852.33C408.215 846.15 403.765 823.74 403.765 823.74C394.375 834.1 369.865 845.12 358.795 839.3L358.785 839.31Z" fill="#82817F"/>
<path d="M407.755 823.12C408.625 827.55 409.475 831.97 410.285 836.41C411.095 840.86 411.895 845.27 412.535 849.88C412.865 852.21 413.045 854.8 412.775 857.41C412.485 860.02 411.805 862.83 410.055 865.35C409.195 866.6 408.095 867.76 406.805 868.61C406.495 868.85 406.155 869.02 405.825 869.22C405.495 869.41 405.165 869.6 404.815 869.74L403.785 870.18L402.995 870.47L396.665 872.8L390.295 875.14C388.895 875.64 387.355 875.91 385.805 875.91C384.245 875.92 382.705 875.58 381.315 875.07C378.505 874.02 376.335 872.24 374.535 870.38C372.735 868.5 371.315 866.38 370.095 864.47C365.205 856.71 360.785 848.93 356.305 841.07L362.375 837.65C366.795 845.41 371.265 853.27 375.955 860.71C377.155 862.59 378.265 864.21 379.575 865.58C380.875 866.94 382.325 868.04 383.745 868.55C385.165 869.1 386.505 869.07 387.965 868.58L394.255 866.27L400.585 863.94L401.375 863.65L401.895 863.42C402.075 863.36 402.225 863.26 402.385 863.17C402.535 863.08 402.705 863.01 402.835 862.89C403.425 862.51 403.895 862 404.305 861.4C405.145 860.22 405.635 858.54 405.825 856.7C406.005 854.83 405.905 852.9 405.605 850.79C405.015 846.5 404.205 842.05 403.415 837.67C402.605 833.27 401.765 828.86 400.905 824.48L407.735 823.12H407.755Z" fill="#310401"/>
<path d="M379.795 844.333L377.629 845.164L385.327 865.228L387.493 864.397L379.795 844.333Z" fill="#686663"/>
<path d="M386.764 842.162L384.598 842.993L392.091 862.525L394.257 861.694L386.764 842.162Z" fill="#686663"/>
<path d="M393.674 839.29L391.508 840.121L399.001 859.653L401.167 858.822L393.674 839.29Z" fill="#686663"/>
<path fill-rule="evenodd" clip-rule="evenodd" d="M287.635 615.3C294.895 636.25 301.575 654.32 307.585 670.83C314.745 690.49 295.115 694.54 289.955 678.44C285.765 665.37 276.645 625.08 275.875 613.31C274.745 596.26 281.995 597.58 287.635 615.3Z" fill="#CECECE"/>
<path d="M288.777 707.53L368.807 679.05L370.407 683.41L290.317 711.91L288.777 707.53Z" fill="#686663"/>
<path d="M307.386 746.7C309.556 753.51 311.526 760.16 313.736 766.78C315.946 773.39 318.276 779.94 320.906 786.35C326.156 799.13 332.386 811.62 340.936 822.04L342.596 823.92L343.426 824.86L344.296 825.75L346.046 827.52L347.896 829.16L348.816 829.98L349.796 830.72C350.446 831.21 351.086 831.72 351.746 832.18C353.116 833.02 354.436 833.97 355.886 834.63C357.276 835.43 358.776 835.94 360.246 836.53C360.996 836.78 361.756 836.95 362.516 837.17C362.896 837.27 363.266 837.39 363.656 837.47L364.816 837.65C365.596 837.75 366.356 837.94 367.136 837.97L369.486 838.06C369.706 838.07 369.626 838.06 369.646 838.06L370.886 837.64L373.366 836.79C379.956 834.51 386.446 832.09 392.776 829.32L395.146 828.27L395.696 828.02L396.216 827.48C396.746 826.9 397.356 826.39 397.836 825.76L399.306 823.91C401.126 821.33 402.666 818.51 403.796 815.48C406.016 809.39 406.936 802.72 406.956 795.98C407.026 789.23 406.266 782.41 405.086 775.65C403.916 768.88 402.256 762.16 400.346 755.51C398.436 748.85 396.216 742.26 393.836 735.72C391.446 729.18 388.856 722.71 386.196 716.21L378.266 696.68C372.966 683.69 367.536 670.77 361.816 657.99C356.106 645.21 350.116 632.56 343.616 620.22C337.106 607.89 330.136 595.79 322.036 584.64C317.966 579.1 313.616 573.77 308.736 569.17C306.296 566.88 303.716 564.79 300.996 563.09C298.286 561.38 295.406 560.08 292.526 559.57C291.806 559.39 291.086 559.39 290.376 559.29C289.666 559.32 288.946 559.24 288.246 559.36C286.836 559.45 285.446 559.86 284.136 560.36C282.836 560.86 281.696 561.64 280.596 562.5C279.566 563.45 278.576 564.5 277.766 565.75C276.086 568.2 274.936 571.22 274.086 574.34C273.236 577.48 272.716 580.79 272.396 584.14C271.756 590.85 271.876 597.75 272.346 604.62C272.816 611.5 273.656 618.4 274.706 625.27C276.816 639.02 279.746 652.68 283.076 666.26C286.426 679.83 290.186 693.32 294.246 706.72C298.316 720.11 302.656 733.44 307.336 746.61L300.776 748.95C296.046 735.64 291.676 722.24 287.576 708.74C283.486 695.24 279.696 681.65 276.316 667.93C272.956 654.21 269.976 640.37 267.826 626.33C266.766 619.31 265.896 612.24 265.406 605.1C264.926 597.97 264.786 590.76 265.466 583.47C265.816 579.83 266.386 576.17 267.366 572.52C268.366 568.89 269.716 565.22 271.996 561.85C273.106 560.16 274.516 558.6 276.086 557.2C277.726 555.87 279.536 554.68 281.526 553.9C283.476 553.14 285.506 552.57 287.606 552.41C288.646 552.26 289.696 552.33 290.736 552.32C291.766 552.43 292.816 552.47 293.806 552.7C297.856 553.44 301.476 555.14 304.696 557.16C307.936 559.19 310.826 561.55 313.516 564.07C318.866 569.12 323.436 574.73 327.676 580.51C336.096 592.11 343.176 604.44 349.796 616.95C356.386 629.48 362.426 642.25 368.186 655.12C373.946 668 379.396 680.99 384.726 694.02L392.656 713.56C395.316 720.06 397.956 726.65 400.386 733.3C402.816 739.96 405.086 746.7 407.046 753.55C409.016 760.4 410.726 767.34 411.956 774.42C413.186 781.49 414.006 788.7 413.936 796.01C413.906 803.3 412.936 810.76 410.326 817.9C409.006 821.46 407.166 824.86 404.926 828.01L403.126 830.28C402.526 831.04 401.796 831.69 401.136 832.39L399.816 833.73C399.466 833.99 399.026 834.11 398.646 834.31L397.996 834.6L395.546 835.68C389.006 838.54 382.316 841.05 375.626 843.35L373.116 844.21L371.856 844.64C371.436 844.77 371.026 844.94 370.606 845.04L369.446 845L366.526 844.88C365.556 844.83 364.596 844.61 363.636 844.48L362.196 844.25C361.726 844.15 361.256 844 360.786 843.88C359.856 843.61 358.906 843.39 357.986 843.08C356.186 842.37 354.356 841.72 352.686 840.78C350.936 839.96 349.386 838.87 347.776 837.86C347.006 837.32 346.266 836.73 345.516 836.17L344.396 835.31L343.346 834.39L341.246 832.53L339.286 830.56L338.316 829.57L337.406 828.54L335.576 826.47C326.256 815.1 319.856 802.1 314.436 788.95C311.726 782.36 309.346 775.66 307.106 768.94C304.866 762.23 302.846 755.41 300.746 748.83L307.366 746.67L307.386 746.7Z" fill="#310401"/>
<path fill-rule="evenodd" clip-rule="evenodd" d="M518.357 829.28L808.577 724.2C824.197 718.54 832.487 701.48 827.277 685.7L820.107 663.99L888.157 642.78L823.437 461.38L731.367 417.43L718.037 378.33C711.157 358.15 689.167 347.42 669.027 354.42L661.407 358.04C645.847 334.93 636.447 328.08 618.197 335.17L423.167 409.58C415.237 412.61 410.067 420.3 410.267 428.79L410.897 455.86L389.687 463.23C376.397 468.39 369.687 483.26 374.627 496.64L387.517 531.59L328.687 604.58C322.847 611.76 321.677 620.4 324.567 629.19L377.077 788.49C381.837 802.98 397.577 810.72 411.957 805.64L476.797 782.73L488.207 815.03C492.557 827.33 506.087 833.74 518.357 829.3V829.28Z" fill="#82817F"/>
<path fill-rule="evenodd" clip-rule="evenodd" d="M705.676 523.52C705.676 523.52 738.006 574.85 777.386 575.99C818.616 577.18 822.936 563.68 822.936 563.68L790.996 461.8C790.996 461.8 734.906 433.84 710.346 422.19C694.826 414.83 669.176 414.89 669.176 414.89L705.686 523.51L705.676 523.52Z" fill="#9E9E9E"/>
<path fill-rule="evenodd" clip-rule="evenodd" d="M429.724 648.94C429.724 648.94 428.954 713.82 410.414 736.41C390.264 760.96 371.514 764.75 371.514 764.75L325.774 633.7C322.044 623.27 320.884 615.27 327.734 606.57C341.434 589.17 387.854 530.67 387.454 531.95L429.724 648.94Z" fill="#9E9E9E"/>
<path d="M822.955 663.01L829.165 681.95C831.455 688.75 831.835 696.35 830.145 703.42C829.375 706.99 827.905 710.39 826.115 713.57C824.325 716.77 821.955 719.65 819.235 722.12C817.915 723.41 816.375 724.44 814.885 725.53C813.285 726.45 811.725 727.44 809.985 728.13C808.225 728.96 806.755 729.41 805.175 730.01L800.505 731.72L725.775 759.14L723.375 752.6L798.075 725.19L802.745 723.48C804.265 722.91 805.965 722.35 807.205 721.74C808.575 721.22 809.805 720.4 811.095 719.69C812.275 718.81 813.515 718.01 814.555 716.96C816.725 714.98 818.645 712.68 820.085 710.08C821.525 707.5 822.745 704.74 823.365 701.81C824.735 695.98 824.465 689.83 822.525 684.06L816.335 665.18L822.955 663V663.01Z" fill="#310401"/>
<path fill-rule="evenodd" clip-rule="evenodd" d="M739.927 722.28L616.107 392.25C612.987 383.93 603.657 379.78 595.387 383.02L387.247 464.67C375.657 469.22 369.777 482.14 373.967 493.86L489.247 816.69C493.097 827.46 504.827 833.11 515.507 829.33L724.787 755.23C738.117 750.51 744.957 735.64 739.937 722.27L739.927 722.28Z" fill="#686765"/>
<path d="M745.376 720.99C748.046 728.04 747.826 736.15 744.736 743.03C743.206 746.48 741.006 749.63 738.266 752.23C735.526 754.84 732.256 756.89 728.726 758.21L691.126 771.56L616.046 798.14L540.966 824.72L522.196 831.37L519.846 832.2C519.436 832.34 519.096 832.48 518.636 832.62L517.246 833.04C516.326 833.35 515.346 833.46 514.406 833.66C513.446 833.79 512.476 833.87 511.506 833.92C507.616 833.99 503.716 833.15 500.246 831.42C496.796 829.67 493.716 827.14 491.436 824C490.326 822.41 489.316 820.74 488.616 818.94C488.436 818.51 488.226 818.02 488.086 817.63L487.666 816.46L486.826 814.12L480.126 795.37L372.986 495.34C372.706 494.55 372.426 493.55 372.156 492.66C371.926 491.73 371.766 490.79 371.586 489.85C371.496 488.9 371.366 487.95 371.336 486.99C371.356 486.04 371.286 485.07 371.396 484.13C371.686 480.32 372.796 476.58 374.636 473.23C376.456 469.87 379.066 466.95 382.146 464.69L383.316 463.86C383.716 463.59 384.136 463.37 384.546 463.13C384.966 462.89 385.376 462.65 385.796 462.42L387.096 461.83C387.516 461.65 387.996 461.42 388.376 461.27L389.536 460.82L391.856 459.91L428.926 445.37L503.066 416.28L577.206 387.19L595.746 379.92L596.336 379.69L597.056 379.45C597.536 379.3 598.006 379.11 598.506 379L599.986 378.67C600.486 378.58 600.986 378.54 601.496 378.47C603.506 378.29 605.556 378.37 607.536 378.82C609.506 379.27 611.406 380.01 613.156 381.01C614.916 382.02 616.476 383.34 617.836 384.83C619.206 386.32 620.296 388.07 621.116 389.91L621.416 390.6L621.566 390.95L621.676 391.24L622.116 392.41L622.986 394.74L626.486 404.06L633.476 422.7L745.386 720.98L738.866 723.43L626.956 425.15L619.966 406.51L616.466 397.19L615.596 394.86L615.156 393.69L615.046 393.4L614.946 393.18L614.746 392.73C614.226 391.54 613.536 390.43 612.656 389.48C611.786 388.53 610.796 387.67 609.656 387.03C608.526 386.39 607.306 385.91 606.046 385.62C604.776 385.33 603.476 385.29 602.186 385.4C601.866 385.45 601.546 385.47 601.226 385.52L600.276 385.73C599.956 385.79 599.656 385.93 599.346 386.02L598.886 386.17L598.316 386.39L579.776 393.66L505.636 422.75L431.496 451.84L394.426 466.38L392.106 467.29L390.946 467.74C390.546 467.89 390.286 468.04 389.946 468.18L388.976 468.61L388.056 469.14C387.756 469.32 387.436 469.48 387.146 469.68L386.286 470.3C384.026 471.96 382.086 474.1 380.756 476.59C378.046 481.56 377.496 487.58 379.566 492.98L486.706 793.01L493.406 811.76L494.246 814.1L494.666 815.27C494.806 815.65 494.936 815.93 495.076 816.26C495.566 817.56 496.306 818.74 497.086 819.88C498.706 822.12 500.906 823.91 503.356 825.16C505.826 826.39 508.596 826.97 511.346 826.93C512.026 826.9 512.716 826.84 513.396 826.75C514.066 826.59 514.756 826.55 515.406 826.31L516.396 826.02C516.736 825.92 517.166 825.75 517.546 825.62L519.896 824.79L538.666 818.14L613.746 791.56L688.826 764.98L726.286 751.69C731.656 749.7 736.096 745.46 738.406 740.19C740.756 734.94 740.926 728.81 738.896 723.42L745.416 720.97L745.376 720.99Z" fill="#310401"/>
<path d="M660.097 359.62L647.837 344.11L646.307 342.17L645.547 341.2L644.917 340.62C644.387 340.09 643.767 339.67 643.197 339.19C642.577 338.78 641.987 338.32 641.327 337.96C638.767 336.42 635.887 335.44 632.937 335.03C631.457 334.81 629.957 334.8 628.467 334.87C626.977 334.97 625.507 335.23 624.057 335.6L623.007 335.93C622.667 336.02 622.297 336.16 621.897 336.32L619.587 337.2L614.967 338.96L596.497 345.99L522.607 374.12L448.717 402.25L430.247 409.28L425.627 411.04L424.477 411.48L423.457 411.91C423.117 412.04 422.787 412.22 422.467 412.38C422.147 412.55 421.807 412.7 421.507 412.91C418.997 414.4 416.827 416.49 415.307 418.99C413.747 421.46 412.827 424.33 412.597 427.24C412.547 427.6 412.557 427.97 412.547 428.33C412.547 428.7 412.527 429.04 412.547 429.48L412.597 431.95L412.697 436.89L413.117 456.65L408.477 456.75L408.057 436.99L407.957 432.05L407.907 429.58C407.887 429.19 407.907 428.71 407.907 428.26C407.917 427.8 407.907 427.34 407.967 426.89C408.257 423.24 409.407 419.64 411.367 416.55C413.287 413.43 415.997 410.8 419.147 408.93C419.527 408.68 419.947 408.48 420.347 408.27C420.757 408.06 421.157 407.84 421.587 407.68L422.847 407.15L423.997 406.71L428.617 404.95L447.097 397.92L520.997 369.78L594.897 341.64L613.377 334.61L617.997 332.85C619.547 332.27 621.007 331.66 622.837 331.14C624.587 330.69 626.367 330.37 628.167 330.26C629.967 330.17 631.777 330.19 633.557 330.45C637.127 330.94 640.607 332.13 643.697 333.99C644.487 334.43 645.207 334.97 645.957 335.47C646.657 336.04 647.397 336.56 648.037 337.19L648.537 337.65L648.807 337.9C648.917 337.98 649.077 338.17 649.197 338.33L649.967 339.3L651.497 341.24L663.757 356.75L660.117 359.63L660.097 359.62Z" fill="#2E100D"/>
<path d="M614.216 375.09L606.526 365.29L602.676 360.39L600.756 357.94L600.276 357.33C600.066 357.06 600.106 357.1 599.866 356.88C599.496 356.55 599.146 356.2 598.766 355.89C595.746 353.34 592.026 351.64 588.136 350.95C584.246 350.25 580.176 350.58 576.446 351.88L575.676 349.69C579.786 348.25 584.266 347.89 588.546 348.66C592.826 349.43 596.916 351.3 600.256 354.11C600.676 354.45 601.066 354.84 601.476 355.2C601.586 355.31 601.636 355.34 601.826 355.53L602.116 355.89L602.596 356.5L604.516 358.95L608.366 363.85L616.056 373.65L614.226 375.08L614.216 375.09Z" fill="#2E100D"/>
<path d="M390.406 532.6L358.806 571.77L343.006 591.35L335.106 601.14L331.166 606.02C329.826 607.52 328.806 609.06 327.926 610.77C326.186 614.16 325.266 617.98 325.246 621.82C325.246 623.74 325.466 625.65 325.906 627.52C326.106 628.48 326.406 629.33 326.706 630.32L327.716 633.3L335.806 657.11L351.976 704.73L368.146 752.35L376.236 776.16L380.276 788.07C380.606 789.11 380.976 789.94 381.316 790.85C381.656 791.75 382.166 792.56 382.576 793.43C383.576 795.06 384.656 796.65 386.006 798C386.336 798.34 386.656 798.7 387.006 799.03L388.096 799.96L388.636 800.43L389.226 800.84L390.396 801.66C392.026 802.63 393.716 803.54 395.546 804.09C397.336 804.73 399.226 805.02 401.106 805.19C402.046 805.18 402.996 805.29 403.936 805.16L405.346 805.04L406.736 804.77C407.676 804.64 408.566 804.29 409.476 804.03C410.406 803.74 411.426 803.33 412.396 802.99L418.306 800.84L430.116 796.53L477.366 779.31L478.956 783.67L431.696 800.89L419.886 805.2L413.976 807.35C412.976 807.71 412.046 808.07 410.976 808.42C409.876 808.74 408.796 809.15 407.656 809.32L405.966 809.64L404.246 809.79C403.106 809.94 401.946 809.82 400.796 809.82C398.506 809.63 396.226 809.26 394.066 808.49C391.866 807.82 389.836 806.74 387.876 805.56L386.476 804.58L385.776 804.09L385.126 803.53L383.826 802.41C383.406 802.02 383.026 801.6 382.626 801.19C381.026 799.56 379.716 797.67 378.536 795.73C378.036 794.71 377.446 793.73 377.036 792.67C376.626 791.62 376.166 790.53 375.866 789.56L371.826 777.65L363.736 753.84L347.566 706.22L331.396 658.6L323.306 634.79L322.296 631.81C321.976 630.8 321.596 629.67 321.366 628.57C320.856 626.36 320.586 624.08 320.586 621.81C320.606 617.26 321.696 612.71 323.786 608.65C324.816 606.64 326.146 604.66 327.606 603.04L331.566 598.14L339.456 588.36L355.236 568.8L386.796 529.68L390.416 532.6H390.406Z" fill="#2E100D"/>
<path d="M666.387 411.62C668.187 411.37 669.767 411.31 671.417 411.27C673.047 411.24 674.677 411.27 676.297 411.33C679.537 411.47 682.767 411.79 685.977 412.28C692.377 413.32 698.747 414.99 704.697 417.79L738.787 434.3L806.957 467.33L804.927 471.51L736.807 438.51L702.747 422.01C697.267 419.43 691.307 417.85 685.267 416.87C682.237 416.41 679.177 416.11 676.107 415.97C674.577 415.9 673.047 415.88 671.517 415.91C670.007 415.94 668.437 416.02 667.107 416.2L666.387 411.61V411.62Z" fill="#686663"/>
<path d="M878.845 655.79C876.115 663 890.375 676.26 894.645 682.27C898.355 687.5 903.545 691.37 909.575 689.15L923.275 684.1C929.305 681.88 930.724 675.57 930.174 669.18C929.624 662.83 925.054 639.8 925.054 639.8C918.734 651.64 890.185 661.33 878.845 655.79Z" fill="#82817F"/>
<path d="M929.074 639.18C929.974 643.73 930.844 648.27 931.674 652.84C932.504 657.42 933.334 661.94 933.984 666.68C934.324 669.07 934.504 671.73 934.234 674.39C933.944 677.06 933.234 679.93 931.454 682.51C930.584 683.78 929.454 684.96 928.144 685.84C927.834 686.08 927.484 686.26 927.144 686.46C926.804 686.65 926.464 686.85 926.114 686.99L925.064 687.44L924.254 687.74L917.754 690.14L911.214 692.54C909.794 693.05 908.214 693.33 906.634 693.33C905.044 693.35 903.474 693 902.054 692.47C899.184 691.4 896.964 689.58 895.124 687.67C893.274 685.74 891.824 683.57 890.574 681.61C885.554 673.64 881.014 665.64 876.414 657.57L882.484 654.15C887.024 662.12 891.614 670.2 896.444 677.85C897.674 679.78 898.824 681.46 900.174 682.87C901.514 684.28 903.014 685.41 904.494 685.94C905.974 686.51 907.384 686.48 908.894 685.97L915.354 683.6L921.854 681.2L922.664 680.9L923.204 680.66C923.394 680.6 923.544 680.49 923.714 680.4C923.874 680.3 924.054 680.23 924.184 680.11C924.804 679.71 925.294 679.18 925.724 678.56C926.594 677.33 927.104 675.59 927.304 673.69C927.494 671.76 927.384 669.77 927.074 667.59C926.464 663.17 925.634 658.61 924.824 654.1C923.994 649.58 923.134 645.05 922.244 640.54L929.074 639.18Z" fill="#310401"/>
<path d="M907.65 658.824L905.484 659.655L913.182 679.719L915.348 678.888L907.65 658.824Z" fill="#686663"/>
<path d="M915.182 655.728L913.016 656.559L920.713 676.623L922.88 675.792L915.182 655.728Z" fill="#686663"/>
<path d="M900.467 661.104L898.301 661.935L905.999 681.999L908.165 681.168L900.467 661.104Z" fill="#686663"/>
<path d="M595.586 379.65L637.666 363.33L658.706 355.17L669.226 351.09C670.116 350.75 670.956 350.41 671.876 350.07L674.876 349.1C676.916 348.6 678.986 348.17 681.086 348.06C689.486 347.44 697.976 350.1 704.556 355.11C707.866 357.58 710.766 360.57 713.186 363.91L714.866 366.49C715.426 367.35 715.846 368.29 716.346 369.19C716.576 369.65 716.836 370.09 717.046 370.56L717.636 371.98C718.016 372.91 718.456 373.91 718.746 374.76L734.206 417.15L727.656 419.54L712.196 377.14C711.876 376.21 711.536 375.5 711.216 374.68L710.726 373.49C710.556 373.09 710.336 372.73 710.146 372.35C709.726 371.6 709.386 370.81 708.916 370.1L707.516 367.96C705.516 365.2 703.116 362.74 700.416 360.72C695.036 356.61 688.216 354.54 681.616 355.02C679.956 355.1 678.336 355.46 676.726 355.84L674.356 356.6C673.516 356.91 672.616 357.27 671.746 357.6L661.226 361.68L640.186 369.84L598.116 386.16L595.596 379.66L595.586 379.65Z" fill="#310401"/>
<path d="M666.416 411.85C673.166 409.58 679.986 406.98 687.316 405.62C690.966 404.95 694.736 404.58 698.516 404.71C702.296 404.86 706.056 405.49 709.666 406.57L710.346 406.77C710.466 406.81 710.696 406.86 710.906 406.97L711.276 407.14L712.486 407.72L714.916 408.87L719.766 411.17L729.476 415.78L748.896 425L827.456 462.3L888.826 643.88L789.776 677.25L783.726 679.29L780.696 680.31L778.996 680.84C778.426 681.01 777.826 681.09 777.236 681.22C772.496 682.04 767.466 681.14 763.366 678.67C759.256 676.24 755.946 672.44 754.246 667.99L753.916 667.16L753.646 666.41L753.116 664.9L752.056 661.89L749.936 655.86L732.946 607.65L664.996 414.81L669.376 413.27L737.326 606.11L754.316 654.32L756.436 660.35L757.496 663.36L758.026 664.87L758.296 665.62L758.566 666.27C759.906 669.8 762.516 672.76 765.726 674.66C768.936 676.6 772.816 677.26 776.456 676.64C776.906 676.54 777.366 676.49 777.816 676.35L779.176 675.93L782.196 674.91L788.256 672.87L882.956 640.96L823.706 465.64L746.926 429.19L727.506 419.97L717.796 415.36L712.946 413.06L710.516 411.91L709.306 411.33L709.066 411.22C709.066 411.22 709.076 411.22 708.986 411.2L708.376 411.02C705.116 410.05 701.766 409.49 698.386 409.35C694.996 409.23 691.596 409.56 688.206 410.18C681.416 411.43 674.776 413.94 667.956 416.24L666.456 411.85H666.416Z" fill="#2E100D"/>
<path d="M820.374 562.56C807.164 525.58 759.944 381.39 798.904 366.52C838.714 351.32 888.574 480.93 908.594 530.02C919.304 556.27 945.424 621.47 916.594 648.02C907.054 652.37 898.644 655.46 888.284 658.95C846.694 659.65 827.274 583.72 820.374 562.57V562.56Z" fill="#82817F"/>
<path d="M817.624 542.61C806.434 512.21 768.614 390.39 792.644 391.97C834.934 394.75 897.574 588.32 897.644 610.08C897.734 634.54 878.884 643.45 858.064 629.12C835.004 613.25 823.104 558.43 817.614 542.61H817.624Z" fill="#9E9E9E"/>
<path fill-rule="evenodd" clip-rule="evenodd" d="M815.574 424.57C824.494 446.14 832.694 464.66 840.074 481.62C848.864 501.8 824.904 509.47 818.564 492.84C813.414 479.33 802.194 437.04 801.214 424.38C799.794 406.03 808.644 406.26 815.584 424.58L815.574 424.57Z" fill="#CECECE"/>
<path d="M811.514 520.61C839.524 511.24 867.034 500.04 895.324 490.73L896.754 495.15C868.684 504.38 841.204 515.57 812.954 525.02L811.504 520.61H811.514Z" fill="#686663"/>
<path d="M825.945 560.67C828.175 567.66 830.195 574.5 832.465 581.31C834.735 588.1 837.125 594.84 839.835 601.42C845.235 614.55 851.635 627.4 860.435 638.12L862.145 640.06L862.995 641.03L863.895 641.94L865.695 643.76L867.595 645.44L868.545 646.28L869.545 647.04C870.215 647.54 870.875 648.07 871.555 648.55C872.965 649.42 874.335 650.4 875.825 651.08C877.265 651.9 878.805 652.43 880.315 653.04C881.085 653.3 881.875 653.47 882.655 653.7C883.045 653.8 883.435 653.93 883.825 654.01L885.025 654.19C885.825 654.29 886.615 654.49 887.425 654.52L889.845 654.62C890.105 654.63 889.985 654.63 890.035 654.62L891.315 654.19L893.855 653.32C900.635 650.98 907.295 648.49 913.805 645.64L916.245 644.56L916.825 644.3L917.375 643.73C917.925 643.13 918.545 642.6 919.045 641.96L920.565 640.05C922.445 637.39 924.025 634.49 925.195 631.36C927.485 625.09 928.435 618.22 928.455 611.29C928.535 604.35 927.745 597.34 926.525 590.38C925.315 583.42 923.615 576.51 921.645 569.67C919.685 562.82 917.405 556.05 914.955 549.33C912.495 542.61 909.835 535.96 907.105 529.28L898.965 509.22C893.515 495.87 887.935 482.59 882.065 469.46C876.195 456.33 870.035 443.33 863.365 430.64C856.675 417.97 849.515 405.53 841.185 394.07C837.005 388.37 832.525 382.9 827.505 378.16C824.995 375.81 822.345 373.65 819.535 371.9C816.745 370.14 813.775 368.8 810.795 368.27C810.055 368.08 809.305 368.08 808.565 367.98C807.835 368.01 807.085 367.93 806.365 368.05C804.905 368.14 803.475 368.57 802.115 369.09C800.775 369.61 799.585 370.41 798.455 371.31C797.385 372.29 796.365 373.38 795.525 374.67C793.785 377.2 792.605 380.31 791.725 383.53C790.855 386.76 790.315 390.17 789.985 393.61C789.335 400.52 789.455 407.6 789.935 414.67C790.415 421.75 791.285 428.83 792.355 435.89C794.525 450.02 797.535 464.06 800.955 478.01C804.395 491.96 808.255 505.82 812.435 519.58C816.615 533.34 821.075 547.04 825.885 560.57L819.325 562.91C814.465 549.23 809.975 535.46 805.765 521.59C801.565 507.72 797.665 493.75 794.195 479.66C790.745 465.56 787.685 451.34 785.465 436.93C784.375 429.72 783.475 422.46 782.975 415.13C782.475 407.8 782.335 400.4 783.035 392.92C783.395 389.18 783.975 385.43 784.985 381.69C786.015 377.97 787.395 374.2 789.735 370.76C790.875 369.03 792.315 367.43 793.915 366C795.595 364.64 797.445 363.43 799.475 362.63C801.475 361.85 803.545 361.27 805.705 361.11C806.775 360.96 807.845 361.03 808.915 361.02C809.965 361.13 811.035 361.18 812.055 361.41C816.195 362.17 819.905 363.91 823.215 365.98C826.535 368.06 829.505 370.49 832.265 373.07C837.755 378.25 842.445 384.02 846.805 389.95C855.455 401.86 862.735 414.53 869.525 427.39C876.295 440.26 882.505 453.38 888.425 466.61C894.345 479.84 899.945 493.19 905.415 506.58L913.565 526.65C916.295 533.33 919.005 540.1 921.505 546.93C924.005 553.77 926.335 560.7 928.345 567.73C930.365 574.76 932.125 581.9 933.385 589.17C934.655 596.43 935.495 603.83 935.415 611.34C935.385 618.82 934.385 626.48 931.715 633.8C930.355 637.45 928.475 640.94 926.185 644.16L924.335 646.49C923.725 647.27 922.975 647.93 922.295 648.66L920.955 650.03C920.595 650.29 920.145 650.42 919.755 650.62L919.105 650.91L916.595 652.02C909.875 654.96 903.005 657.53 896.135 659.9L893.555 660.78L892.265 661.22C891.865 661.34 891.425 661.53 890.995 661.63L889.815 661.59L886.825 661.47C885.835 661.42 884.845 661.2 883.865 661.06L882.385 660.82C881.895 660.72 881.425 660.57 880.945 660.44C879.985 660.17 879.015 659.94 878.075 659.62C876.235 658.9 874.355 658.23 872.645 657.26C870.855 656.42 869.265 655.3 867.605 654.27C866.815 653.71 866.055 653.11 865.285 652.53L864.135 651.65L863.055 650.7L860.905 648.79L858.895 646.77L857.895 645.75L856.955 644.69L855.085 642.56C845.525 630.89 838.945 617.54 833.385 604.03C830.605 597.26 828.155 590.38 825.855 583.48C823.555 576.59 821.485 569.58 819.325 562.81L825.945 560.65V560.67Z" fill="#310401"/>
<path fill-rule="evenodd" clip-rule="evenodd" d="M805.777 1146.91L717.677 1095.8L613.547 767.44L690.767 723.51L909.367 995.73L909.107 1094.32L805.777 1146.91Z" fill="#C23C27"/>
<path fill-rule="evenodd" clip-rule="evenodd" d="M638.375 754.9L672.495 732.45L903.155 1093.86L812.205 1146L638.375 754.9Z" fill="#E36337"/>
<path fill-rule="evenodd" clip-rule="evenodd" d="M807.506 1146.62L718.176 1093.35L790.566 1095.42L876.116 1050.26L906.826 995.42L906.416 1095.27L807.506 1146.62Z" fill="#401714"/>
<path fill-rule="evenodd" clip-rule="evenodd" d="M715.255 916.35L659.725 909.16L648.695 870.84L689.145 867.55L738.305 842.38L761.535 808.32L792.315 848.88L774.895 885.78L715.255 916.35Z" fill="#401714"/>
<path fill-rule="evenodd" clip-rule="evenodd" d="M664.177 808.38L623.467 803.01L611.727 765.26L693.067 717.78L722.567 756.52L708.947 785L664.177 808.38Z" fill="#401714"/>
<path fill-rule="evenodd" clip-rule="evenodd" d="M761.536 1030.51L694.826 1020.06L676.086 960.93L737.556 972.25L804.246 936.06L826.826 895.03L867.146 946.39L838.046 990.38L761.536 1030.51Z" fill="#401714"/>
<path d="M692.536 714.15L911.636 997.19L910.276 1096.4L807.936 1150.84L715.646 1098.43L610.176 768.73L617.656 766.34L722.196 1093.12L808.056 1141.88L902.486 1091.65L903.756 999.82L686.326 718.95L692.536 714.15Z" fill="#2E100D"/>
<path d="M394.695 565.26L387.465 723.97L456.115 747.45L467.465 694.29L417.915 581.51L421.535 532.74L394.695 565.26Z" fill="#C23C27"/>
<path d="M385.434 707.99L382.824 811.97L424.884 847.32L462.154 844.7L487.564 782.76L455.234 748.3L462.874 694.34L435.184 721.05L385.434 707.99Z" fill="#771213"/>
<path fill-rule="evenodd" clip-rule="evenodd" d="M485.636 783.04L453.006 747.64L452.146 774.9L437.676 823.17L458.196 846.53L485.636 783.04Z" fill="#59171E"/>
<path d="M423.774 534.35L399.914 565.24L392.404 688.59C392.254 691.18 392.074 693.77 391.954 696.37L391.644 704.15L391.034 719.72L389.804 750.86L387.414 811.45L425.874 844.31L459.154 843.15L482.314 785.25L451.564 751.09L462.384 692.25L469.234 693.51L459.034 748.98L490.394 783.81L463.944 849.96L423.414 851.38L380.324 814.56L382.854 750.56L384.084 719.4L384.694 703.82L385.004 696.03C385.124 693.43 385.314 690.84 385.464 688.25L393.114 562.69L418.284 530.1L423.794 534.36L423.774 534.35Z" fill="#310401"/>
<path d="M458.2 788.305L448.781 817.588L453.208 819.012L462.626 789.729L458.2 788.305Z" fill="#2E100D"/>
<path d="M456.567 800.251L455.109 804.667L473.816 810.843L475.274 806.427L456.567 800.251Z" fill="#2E100D"/>
<path fill-rule="evenodd" clip-rule="evenodd" d="M394.176 662.55L416.376 582.55L399.856 565.51L394.176 662.55Z" fill="#E36337"/>
<path d="M766.175 913.9L735.555 843.49L740.625 734.67L717.275 679.06L636.755 566.03L592.625 477.77L560.385 477.51L421.535 533L417.145 583.06L465.575 689.36L475.855 715.71L498.435 777.64L514.955 894.29L567.085 947.97L606.625 946.35L638.305 908.74L615.595 873.13L609.915 800.35L618.175 798.8L633.785 877.13L689.915 941.12L766.175 913.9Z" fill="#C23C27"/>
<path d="M534.625 916.48L582.885 968.61L579.015 1018.03L599.145 1041.64L663.785 1029.26L662.115 949L631.145 896.87L620.545 928.13L575.085 909.73L534.625 916.48Z" fill="#771213"/>
<path d="M650.824 895.71L696.624 946.16L687.854 994.67L707.464 1020.22L776.624 1004.48L778.174 933.77L752.404 878.86L741.944 911.19L697.874 881.53L650.824 895.71Z" fill="#771213"/>
<path d="M440.674 534.5L422.174 567.4L420.734 587.73L478.804 710.34L486.564 749L507.854 783.58L572.754 805.13L627.984 797L665.404 768.61L690.434 707.19L643.674 638.35L585.894 529.48L540.674 497.63L440.674 534.5Z" fill="#771213"/>
<path d="M604.734 1015.34L601.004 1018.12L615.142 1037.11L618.873 1034.34L604.734 1015.34Z" fill="#2E100D"/>
<path d="M625.519 1011.41L621.789 1014.19L635.928 1033.18L639.658 1030.41L625.519 1011.41Z" fill="#2E100D"/>
<path d="M716.616 992.841L712.695 995.341L727.015 1017.79L730.936 1015.29L716.616 992.841Z" fill="#2E100D"/>
<path d="M739.108 987.351L735.191 989.857L747.579 1009.21L751.496 1006.71L739.108 987.351Z" fill="#2E100D"/>
<path d="M545.532 533.13L612.012 670.38L525.102 703.28L510.392 705.98L449.912 566.55L452.372 529.64L422.562 527.32L416.242 581.64L474.302 712.22L487.592 748.48L534.432 742.41L622.522 712.55L671.912 690.93L704.042 661.71L677.142 630.74L652.172 655.71L586.952 519.06L590.302 475.19L547.592 489L545.532 533.13Z" fill="#DB313E"/>
<path fill-rule="evenodd" clip-rule="evenodd" d="M552.433 815.15L510.203 797.16L523.273 891.19L550.373 889.13L552.433 815.15Z" fill="#E36337"/>
<path fill-rule="evenodd" clip-rule="evenodd" d="M634.172 806.55L676.982 769.17L686.822 863.84L648.882 872.35L634.172 806.55Z" fill="#E36337"/>
<path fill-rule="evenodd" clip-rule="evenodd" d="M662.245 949.13L630.145 902.57L648.695 955.32L646.375 1005.26L661.855 1028.87L662.245 949.13Z" fill="#59171E"/>
<path fill-rule="evenodd" clip-rule="evenodd" d="M775.856 936.35L753.766 880.48L763.496 941.84L757.276 980.48L771.596 1009.51L775.856 936.35Z" fill="#59171E"/>
<path d="M547.085 490.29L545.785 532.61L585.405 517.26L590.565 474.67L547.085 490.29Z" fill="#BC2B3D"/>
<path d="M422.953 525.64L416.113 582.55L448.753 568.22L453.143 528.48L422.953 525.64Z" fill="#BC2B3D"/>
<path d="M480.075 713.08L501.625 779.44L518.435 891.06L585.965 966.36L581.835 1018.7L599.625 1037.51L658.715 1027.48L657.605 949.73L611.995 873.96L606.375 800.97L613.315 800.43L618.815 871.78L664.555 947.75L665.765 1033.35L597.115 1045L574.645 1021.23L578.785 968.79L511.855 894.16L494.815 781.05L473.445 715.23L480.075 713.08Z" fill="#310401"/>
<path d="M709.904 657.67L745.384 730.79L738.414 841.15L780.164 931.22L780.574 1007.63L705.004 1024.33L683.844 997.44L691.574 947.23L632.524 878.97L613.324 799.47L620.954 797.62L639.704 875.28L699.884 944.83L692.124 995.26L708.124 1015.6L772.684 1001.33L772.324 932.97L730.454 842.65L737.424 732.36L702.834 661.1L709.904 657.67Z" fill="#2E100D"/>
<path d="M542.525 791.58L579.105 802.52L627.745 794.46L663.135 766.1L676.055 733.15L680.555 734.91L667.155 769.06L629.775 799.02L578.795 807.47L541.145 796.21L507.125 783.52L542.525 791.58Z" fill="#2E100D"/>
<path d="M648.534 655.93L582.844 518.4L587.294 476.08L591.914 476.57L587.604 517.59L652.724 653.93L648.534 655.93Z" fill="#2E100D"/>
<path d="M609.242 672.38L542.922 533.35L544.792 489.79L549.432 489.99L547.612 532.39L613.432 670.38L609.242 672.38Z" fill="#2E100D"/>
<path d="M508.572 706.61L447.172 567.61L449.762 527.57L454.402 527.87L451.882 566.77L512.822 704.74L508.572 706.61Z" fill="#2E100D"/>
<path d="M474.024 717.35L413.594 581.87L420.574 525.1L425.184 525.67L418.364 581.16L478.264 715.45L474.024 717.35Z" fill="#2E100D"/>
<path d="M679.215 632.34L657.195 655.54L624.035 669.31L607.685 676.1C606.315 676.65 604.965 677.26 603.585 677.77L599.395 679.2L591.025 682.07L523.925 705.04L477.135 715.65L476.105 711.12L522.655 700.57L589.405 677.72L597.765 674.86L601.945 673.43C603.325 672.92 604.665 672.32 606.035 671.76L622.345 664.98L654.505 651.62L675.845 629.14L679.215 632.34Z" fill="#2E100D"/>
<path d="M704.652 663.03L672.412 692.72L637.962 707.16L620.932 714.3L603.512 720.42L533.592 744.9L486.612 751.3L485.992 746.7L532.492 740.37L601.872 716.07L619.262 709.96L636.252 702.84L669.872 688.75L701.502 659.61L704.652 663.03Z" fill="#2E100D"/>
<path d="M316.263 521.47L457.763 540.31L532.513 517.4L669.833 422.87L648.543 400.77L669.793 400.49L630.603 367.12L649.313 334.99L639.653 322.61L623.003 340.33L635.233 299.79L607.853 280.89L593.493 214.31L562.953 211.7L498.333 261.8L388.803 291.22L299.513 280.12L279.973 297.01L304.203 362.59L290.793 388.52L317.203 419.93L295.333 413.09L295.483 431.91L326.453 452.88L306.653 503.22L330.013 482.66L316.263 521.47Z" fill="#C23C27"/>
<path d="M477.692 387.23C484.682 389.34 496.032 392.32 496.032 392.32L511.322 381.89L512.672 362.93C515.282 359.97 518.222 356.71 520.832 353.75C510.822 350.62 489.682 344.73 489.682 344.73L467.782 362.24C467.782 362.24 467.012 381.03 466.652 391.42L473.752 389.51L477.692 387.24V387.23Z" fill="#F5DECD"/>
<path d="M432.95 399.27C427.91 404.55 419.51 412.76 419.51 412.76L401.02 411.24L390.72 395.31C386.99 394.02 382.96 392.39 379.23 391.1C386.39 383.44 401.88 367.89 401.88 367.89L429.57 372.31C429.57 372.31 440.18 388.35 445.62 397.21L437.32 399.55L432.95 399.25V399.27Z" fill="#F5DECD"/>
<path d="M565.261 209.57L594.951 211.46L609.071 278.64L636.541 296.86L623.651 337.44L641.521 319.8L650.341 332L631.251 364.22L597.871 334.65L567.001 309.47L554.841 302.68L529.031 296.36L521.531 274.12L565.261 209.57Z" fill="#F5DECD"/>
<path d="M299.781 281.47L280.441 296.16L302.911 361.54L290.161 388.49L317.611 419.9L295.141 413.97L294.291 432.45L324.951 451.69L342.621 406.51L350.861 344.05L353.131 330.65L367.331 306.13L299.781 281.47Z" fill="#F5DECD"/>
<path d="M478.631 367.25C478.351 374.59 477.961 380.36 477.641 387.24C484.631 389.35 496.061 392.38 496.061 392.38L511.301 381.96C511.301 381.96 512.211 372.79 512.681 362.94C505.231 359.97 495.661 356.04 495.661 356.04L478.631 367.26V367.25Z" fill="#2E100D"/>
<path d="M432.964 399.28C427.924 404.56 419.484 412.83 419.484 412.83L401.084 411.29C401.084 411.29 395.764 403.76 390.504 395.42C395.514 389.17 401.904 381.02 401.904 381.02L422.564 382.57L432.974 399.28H432.964Z" fill="#2E100D"/>
<path d="M341.481 328.78C346.701 325.16 354.211 321.14 362.511 314.98L353.001 330.79L351.121 342.18L348.571 354.91L305.301 318.2C305.301 318.2 330.351 325.3 341.471 328.78H341.481Z" fill="#E6B48A"/>
<path d="M329.641 360.82C321.541 370.02 312.811 377.85 306.371 384.75C310.511 394.98 319.771 415.33 323.471 423.82C313.641 427.48 307.791 429.56 298.551 432.93L325.641 450.24L341.791 408.39L318.421 392.16L329.641 360.81V360.82Z" fill="#E6B48A"/>
<path d="M523.99 281.3C531.97 285.79 537.96 289.81 544.85 292.99C551.93 282.86 572.3 249.68 572.3 249.68L553.5 304.84L529.22 297.52L523.98 281.3H523.99Z" fill="#E6B48A"/>
<path d="M615.084 301.83C616.424 313.84 618.164 332.57 618.624 343.05C623.044 342.38 636.534 340.96 642.674 340L628.394 364.22L595.224 336.09L606.104 311.27L582.594 292.19C582.594 292.19 606.064 299.01 615.074 301.84L615.084 301.83Z" fill="#E6B48A"/>
<path d="M377.32 290.65C394.12 293.11 411.27 297.7 428.15 300.24C445.57 287.25 460.17 277.06 477.5 264.39L377.32 290.65Z" fill="#E36337"/>
<path d="M564.09 212.76C550.01 233.93 535.86 254.2 521.89 274.92L495.48 264.47L564.09 212.76Z" fill="#771213"/>
<path d="M300.82 282.01C327.05 292.77 342.27 297.26 367.47 307.21L380.2 292.74L300.82 282.01Z" fill="#771213"/>
<path d="M596.173 337.47C599.863 329.3 603.773 320.44 607.463 312.27C600.003 306.33 583.783 293.51 583.783 293.51C583.783 293.51 575.353 262.4 572.293 249.34C566.173 268.22 553.473 304.75 553.473 304.75L596.173 337.46V337.47Z" fill="#2E100D"/>
<path d="M552.543 304.03C552.543 304.03 560.923 308.83 564.703 310.83C567.563 305.94 570.413 301.06 573.273 296.17C574.133 303.63 574.993 311.09 575.853 318.55C581.053 317.41 586.263 316.28 591.463 315.14C589.153 319.18 586.603 323.19 584.283 327.23L668.223 399.11L647.533 398.84L668.893 421.94L636.403 444.77L644.183 422.73L552.563 304.02L552.543 304.03Z" fill="#E36337"/>
<path d="M331.554 409.57C323.134 402.06 316.704 396.3 308.934 389.6C313.224 381.03 317.374 373.93 320.854 363.88C316.964 352.09 310.404 333.6 305.004 318.01C318.894 329.94 333.074 340.99 347.734 353.52L331.554 409.57Z" fill="#2E100D"/>
<path d="M351.66 338.02C351.66 338.02 347.53 356.95 345.1 361.6C341.08 359.86 336.39 357.31 331.97 355.44C334.8 363.89 335.13 368.6 338 375.53C332.78 377.71 329.16 379.78 323.93 381.96C327.74 384.38 333.39 388.78 337.19 391.2L306.98 501.57L330.48 481.37L315.72 521.48L375.35 529.55L345.94 505.99L351.66 338.02Z" fill="#E36337"/>
<path d="M402.22 505.98C386.88 493.2 353.32 465.2 353.32 465.2C353.32 465.2 360.6 414.95 363.74 393.55C375.31 406.09 399.27 432.28 399.27 432.28C399.27 432.28 395.85 451.36 393.55 463.12C406.85 471.96 439.33 493.16 439.33 493.16L483.28 493.56L516.81 471.12C516.81 471.12 533.27 439.05 539.96 423.96C535.03 418.54 521.25 401.04 521.25 401.04C521.25 401.04 533.8 365.46 540.6 348.09C556.42 372.7 578.16 407.62 578.16 407.62C578.16 407.62 571.52 447.21 563.94 463.6L528.65 515.1L451.18 535.37L402.21 505.98H402.22Z" fill="#771213"/>
<path d="M597.621 428.85C597.691 416.66 597.551 404.63 597.351 391.14C588.721 384.95 584.081 382.28 577.281 377.87C585.061 378.42 588.981 378.39 597.581 378.65C577.611 367.72 560.591 359.03 540.621 348.1L578.101 407.38L563.871 461.62L597.611 428.85H597.621Z" fill="#F5DECD"/>
<path d="M563.532 462.47L529.102 514.85L598.022 468.57L597.622 414.11L580.612 432.73L570.492 435.88L563.532 462.47Z" fill="#E6B48A"/>
<path d="M521.53 400.55C511.46 401.77 495.37 402.42 495.37 402.42C495.37 402.42 483.04 394.39 473.76 389.51C462.01 392.48 437.16 399.52 437.16 399.52L423.08 422.43C423.08 422.43 405.44 429.69 399.32 432.19L393.57 463.14L439.35 493.18L483.3 493.58L516.83 471.14L540.36 423.91L521.53 400.56V400.55Z" fill="#F5DECD"/>
<path d="M418.673 387.04C421.213 391.25 423.323 394.39 425.773 398.26C422.403 401.78 416.743 407.29 416.743 407.29L404.443 406.28C404.443 406.28 400.893 401.27 397.383 395.73C400.743 391.56 405.013 386.13 405.013 386.13L418.673 387.04Z" fill="#771213"/>
<path d="M416.794 387.62C418.474 390.67 419.514 392.71 421.054 395.52C418.034 398.96 415.564 401.72 415.564 401.72L406.774 400.66C406.774 400.66 404.224 396.37 402.254 392.91C404.584 390.02 407.354 386.48 407.354 386.48L416.774 387.61L416.794 387.62Z" fill="#2E100D"/>
<path d="M483.32 383.03C487.89 384.37 495.37 386.29 495.37 386.29L505.39 379.53C505.39 379.53 506.01 373.61 506.35 367.26C501.48 365.37 495.22 362.86 495.22 362.86L483.91 370.35" fill="#771213"/>
<path d="M486.49 378.46C490.14 379.5 494.79 380.62 494.79 380.62L500.88 376.34C500.88 376.34 501.15 372.52 501.32 367.6C497.6 366.54 492.8 365.17 492.8 365.17L486.97 369.2C486.97 369.2 486.64 375.17 486.48 378.47L486.49 378.46Z" fill="#2E100D"/>
<path d="M495.824 363.1L491.454 366.07L491.344 371.18L495.514 373.6L500.324 370.73L500.244 365.12L495.824 363.1Z" fill="#F5DECD"/>
<path d="M418.714 387.05L413.564 386.83L410.184 391.03L412.164 395.69L417.784 396.22L421.054 391.63L418.714 387.05Z" fill="#F5DECD"/>
<path d="M395.24 318.17C397.19 331.2 398.8 342.91 400.93 356.05C409.88 355.49 421.34 354.97 430.05 354.67C427.57 341.68 425.15 330.22 422.46 317.19C412.96 317.65 395.23 318.18 395.23 318.18L395.24 318.17Z" fill="#F5DECD"/>
<path d="M374.48 343.67C376.65 350.13 382.17 367.5 382.17 367.5L394.76 357.83C394.76 357.83 390.2 340.94 387.55 331.44C381.89 336.33 374.48 343.67 374.48 343.67Z" fill="#F5DECD"/>
<path d="M469.5 298.78C473.9 310.91 478.72 322.27 483.23 334.54C475.17 338.47 464.94 343.66 457.21 347.7C452.96 335.18 449.41 324.02 445.32 311.35C454.17 307.1 469.49 298.78 469.49 298.78H469.5Z" fill="#F5DECD"/>
<path d="M500.132 310.73C501.432 317.42 505.202 335.25 505.202 335.25L489.482 333.05C489.482 333.05 485.112 316.11 482.742 306.54C490.072 308 500.142 310.73 500.142 310.73H500.132Z" fill="#F5DECD"/>
<path d="M445.544 397.32C444.804 389.98 443.504 371.53 443.504 371.53C443.504 371.53 451.714 369.3 455.984 368.3C459.504 376.08 463.074 383.96 466.734 391.51L445.544 397.32Z" fill="#E36337"/>
<path d="M476.623 398.97C471.013 394.13 466.653 391.36 466.653 391.36L445.503 397.04C445.503 397.04 443.623 401.38 441.203 407.96L461.423 412L476.623 398.96V398.97Z" fill="#E6B48A"/>
<path d="M460.403 408.41C465.583 405.24 470.163 402.35 476.403 398.53C478.033 400.69 479.203 402.24 480.593 404.07C474.303 411.88 463.433 422.64 463.433 422.64C463.433 422.64 448.413 417.86 440.383 414.13C440.553 412.02 440.783 410.18 440.973 407.48C449.043 407.98 460.403 408.42 460.403 408.42V408.41Z" fill="#2E100D"/>
<path d="M374.492 343.67C378.312 348.04 382.272 352.06 386.092 356.43C386.342 348.41 386.922 340.4 387.852 332.43L394.762 357.83L382.172 367.5L374.492 343.67Z" fill="#E6B48A"/>
<path d="M427.162 339.96C422.852 343.36 419.282 346.33 414.972 349.73C407.482 338.03 402.622 330.78 395.242 318.36L400.942 356.05L430.062 354.67L427.162 339.97V339.96Z" fill="#E6B48A"/>
<path d="M500.103 310.76C498.733 316.72 497.433 321.55 496.143 327.41C492.153 321.12 487.963 314.44 482.812 306.66L489.493 333.05L505.213 335.25L500.103 310.76Z" fill="#E6B48A"/>
<path d="M469.463 298.79C469.163 313.24 468.453 321.95 467.713 335.83C462.283 335 457.883 334.21 452.453 333.38L457.223 347.71L483.243 334.55L469.473 298.79H469.463Z" fill="#E6B48A"/>
<path d="M536.502 431.66C536.502 431.66 524.092 431 514.522 430.6C511.402 450.12 507.662 469.25 507.662 469.25L446.392 484.81L423.392 454.48L403.852 469.93L439.342 493.17L483.292 493.57L516.822 471.13L536.502 431.66Z" fill="#E6B48A"/>
<path d="M402.223 505.98L353.323 465.2L363.663 393.45C351.373 412.55 340.223 431.43 327.773 449.68C333.663 448.26 337.173 446.97 342.633 445.89C336.703 454.72 331.863 461.71 331.863 461.71C331.863 461.71 361.713 516.45 368.763 527.88L451.973 534.93L402.223 505.97V505.98Z" fill="#F5DECD"/>
<path d="M368.423 529.5L341.383 478.16L366.313 492.08L378.463 486.07L453.173 534.9L368.423 529.5Z" fill="#E6B48A"/>
<path fill-rule="evenodd" clip-rule="evenodd" d="M532.111 522.62C513.481 527.53 466.581 540.22 460.171 541.91L310.001 524.93C312.021 519.44 322.881 491.36 323.151 490.8C320.571 492.97 303.221 505.01 298.141 509.16C298.141 509.16 335.101 396.27 338.401 387.18C335.451 396.39 313.541 488.6 312.261 491.95C313.811 490.57 336.571 472.61 336.811 471.94C334.351 479.11 320.071 518.53 320.071 518.53L458.171 532.67C476.801 527.75 522.841 515.74 525.691 514.99C525.691 514.99 664.681 422.21 664.851 422.09C664.871 422.09 664.881 422.09 664.891 422.08C664.891 422.08 664.891 422.07 664.901 422.04C664.901 422.04 644.501 399.39 642.031 396.8C642.141 397.2 659.031 395.91 659.031 395.91C659.031 395.91 611.251 351.12 594.831 336.28C611.821 350.46 676.201 401.69 676.201 401.69C676.201 401.69 662.401 402.92 656.151 402.97C658.331 405.02 675.921 423.76 675.921 423.76C675.921 423.76 547.381 512.58 532.111 522.63V522.62Z" fill="#2E100D"/>
<path d="M629.272 364.59C634.872 354.42 640.472 344.25 646.072 334.09C643.962 331.18 641.852 328.27 639.742 325.36C632.672 332.08 625.592 338.79 618.522 345.51C623.062 330.34 627.532 314.94 632.072 299.78C623.602 293.83 606.712 280.31 606.712 280.31C606.712 280.31 594.502 215.64 593.722 215.65C584.532 215.08 563.252 214.01 563.252 214.01L563.232 214.03C540.272 230.96 519.642 248.01 496.672 264.94L379.802 293.97L300.642 282.31C300.642 282.31 282.932 296.71 282.952 296.7C290.152 318.75 306.192 361.36 306.192 361.36C306.192 361.36 295.922 382.47 293.192 388.1C304.602 401.46 316.012 414.83 327.422 428.19C317.482 423.73 297.052 416.15 297.052 416.15L299.282 431.37C299.282 431.37 322.122 446.27 322.342 445.9C321.562 447.22 320.302 451.82 319.532 453.13C307.472 443.89 292.332 433.56 292.332 433.56C292.332 433.56 291.762 414.91 291.972 408.46C298.162 410.78 302.292 412.13 308.482 414.46C300.392 404.48 294.032 397.41 285.832 387.93C288.812 382.49 299.852 361.68 299.852 361.68L276.492 294.76C276.492 294.76 294.042 279.46 298.952 274.95C306.222 275.44 380.192 287.11 380.192 287.11L491.942 260.2L561.552 207L599.392 210.31L613.282 276.07C613.282 276.07 638.392 296.84 638.452 296.64C635.212 307.51 631.702 318.62 628.462 329.49C632.502 325.47 637.522 321.33 641.562 317.31C645.062 323.07 651.972 334.85 651.972 334.85C651.972 334.85 639.722 358.66 634.072 368.76C632.782 367.92 630.322 365.72 629.232 364.66L629.272 364.59Z" fill="#2E100D"/>
<path d="M513.063 427.21L509.323 422.26L507.263 423.16L508.183 426.4L493.523 437.1L469.723 437.75L464.993 420L460.423 421.21L465.163 438.91L444.383 450.15L426.843 447.91L425.753 444.53L423.313 444.58L422.633 451.13L445.473 455.43L468.773 443.31L495.253 442.3L513.063 427.21Z" fill="#2E100D"/>
<path d="M482.346 460.684L467.09 464.596L467.976 468.054L483.233 464.142L482.346 460.684Z" fill="#2E100D"/>
<path d="M469.014 441.13L446.434 453.06L459.114 462.64L472.854 455.67L489.984 454.03L494.144 440.09L469.014 441.13Z" fill="#2E100D"/>
<path fill-rule="evenodd" clip-rule="evenodd" d="M585.664 682.82L546.354 673.36L518.504 702.69L529.974 741.46L569.294 750.92L597.134 721.6L585.664 682.82Z" fill="white"/>
<path d="M587.895 682.16L599.745 722.23L570.055 753.49L528.125 743.41L515.895 702.06L545.595 670.79L586.215 680.56L585.125 685.08L547.115 675.94L521.115 703.31L531.825 739.52L568.535 748.35L594.535 720.97L583.445 683.48L587.895 682.16Z" fill="#2E100D"/>
<path d="M552.817 690.34C554.337 689.82 555.957 689.67 557.537 689.9C559.127 690.13 560.637 690.74 561.937 691.67C564.157 693.25 565.837 695.47 566.757 698.04C567.567 699.99 568.107 702.04 568.367 704.14C568.697 706.52 568.287 708.95 567.207 711.09C566.957 711.62 566.687 712.14 566.377 712.64C566.067 713.13 565.697 713.56 565.317 714.05C566.057 714.97 566.827 715.9 567.607 716.85L562.807 724.18C561.887 723.04 560.997 721.94 560.107 720.84C559.217 719.74 558.427 718.67 557.557 717.58C557.417 717.4 557.327 717.36 557.137 717.43C555.827 717.88 554.507 718.3 553.137 718.76C554.797 723.5 556.507 728.14 558.287 732.8C555.917 733.59 550.067 735.61 550.067 735.61L537.977 695.63L552.787 690.33L552.817 690.34ZM550.627 711.06C550.707 711.05 550.787 711.03 550.867 711C552.787 710.37 554.707 709.76 556.607 709.12C557.217 708.9 557.807 708.63 558.357 708.3C558.857 708.03 559.287 707.66 559.637 707.21C559.987 706.77 560.237 706.25 560.387 705.71C560.677 704.31 560.527 702.86 559.957 701.55C559.637 700.49 558.927 699.58 557.977 699C557.477 698.73 556.927 698.57 556.357 698.53C555.787 698.49 555.227 698.56 554.687 698.75C552.427 699.43 550.117 700.21 547.817 700.96C547.757 700.98 547.707 701.01 547.627 701.04C548.597 704.4 549.587 707.71 550.607 711.05" fill="#ED1C24"/>
<path d="M570.316 730.64L572.026 727.88L575.156 722.77C575.266 722.56 575.396 722.55 575.636 722.63C577.106 723.11 578.386 724.05 579.296 725.3C579.456 725.49 579.616 725.65 579.816 725.86L579.246 726.93C578.796 727.77 578.346 728.61 577.896 729.45C577.816 729.59 577.696 729.69 577.546 729.75C576.206 730.18 574.866 730.61 573.516 731.03C573.456 731.05 573.396 731.08 573.336 731.07L570.336 730.67L570.316 730.64Z" fill="#ED1C24"/>
<path d="M569.507 718.77C570.687 719.66 571.857 720.54 573.047 721.43L567.967 729.34C566.847 728.32 565.757 727.3 564.637 726.27L569.507 718.77Z" fill="#ED1C24"/>
<path d="M457.23 584.429L423.75 598.482L431.611 617.209L465.091 603.156L457.23 584.429Z" fill="#2E100D"/>
<path d="M466.85 606.033L433.379 620.082L436.119 626.61L469.59 612.561L466.85 606.033Z" fill="#2E100D"/>
<path d="M595.379 536.173L555.168 553.052L562.963 571.622L603.174 554.744L595.379 536.173Z" fill="#2E100D"/>
<path d="M605.017 557.55L564.824 574.42L567.541 580.893L607.734 564.022L605.017 557.55Z" fill="#2E100D"/>
<path d="M639.593 479.77L757.463 610.61L702.303 656.87L624.693 574.03L590.043 517.51L591.983 481.9L639.593 479.77Z" fill="#C23C27"/>
<path d="M808.112 668.48L814.822 723.05L777.272 765.87L746.182 767.97L717.362 734.92L721.602 679.83L685.012 638.8L732.052 619.1L737.702 586.61L808.112 668.48Z" fill="#771213"/>
<path fill-rule="evenodd" clip-rule="evenodd" d="M815.393 722.08L810.493 669.26L797.953 710.72L773.223 741.13L778.083 763.84L815.393 722.08Z" fill="#59171E"/>
<path d="M688.133 638.08L723.303 677.84L719.023 734.82L746.503 763.91L775.293 762.61L811.733 721.23L804.533 669.35L639.373 484.16L589.383 482.88L589.553 476.28L642.393 477.63L810.803 666.45L818.693 723.32L778.403 769.08L743.783 770.64L712.223 737.24L716.513 680.13L683.183 642.46L625.633 572.42L688.133 638.08Z" fill="#310401"/>
<path d="M742.522 720.322L738.941 723.29L758.32 746.673L761.901 743.706L742.522 720.322Z" fill="#2E100D"/>
<path d="M748.183 732.84L729.723 746.272L732.458 750.032L750.919 736.6L748.183 732.84Z" fill="#2E100D"/>
<path fill-rule="evenodd" clip-rule="evenodd" d="M590.672 506.11L635.162 490L691.942 554.83L590.672 506.11Z" fill="#E36337"/>
<g opacity="0.5">
<path d="M488.483 309.77C457.613 308.39 405.073 322.01 376.093 343.84C325.003 382.34 362.383 468.28 424.943 406.7C439.203 392.66 468.183 384.49 488.663 391.46C560.193 415.82 584.713 314.08 488.493 309.77H488.483Z" fill="#FFC033"/>
</g>
<path d="M489.124 305.01C494.664 305.27 500.204 305.85 505.704 306.86C511.204 307.87 516.664 309.34 521.954 311.42C527.234 313.49 532.364 316.15 537.004 319.61C541.664 323.03 545.824 327.27 549.084 332.19C552.304 337.12 554.634 342.72 555.604 348.6C556.594 354.46 556.314 360.54 554.784 366.28C553.274 372.03 550.494 377.43 546.724 382.02C542.964 386.61 538.244 390.42 532.974 393.08C530.344 394.42 527.584 395.49 524.774 396.31C521.954 397.13 519.074 397.64 516.184 397.97C513.294 398.3 510.394 398.31 507.514 398.21C504.644 398.05 501.784 397.74 498.984 397.21C497.574 396.98 496.194 396.62 494.804 396.34C493.434 395.97 492.054 395.63 490.704 395.21L488.684 394.57L487.694 394.26L486.814 394.01C485.624 393.7 484.484 393.26 483.254 393.08C478.424 392.05 473.344 391.8 468.274 392.14C458.144 392.9 448.024 395.86 439.124 400.7C438.034 401.33 436.894 401.9 435.864 402.63C434.824 403.33 433.724 403.97 432.764 404.76C431.784 405.53 430.744 406.23 429.874 407.09C428.964 407.91 428.074 408.69 427.034 409.71C423.034 413.56 418.764 417.18 414.144 420.41C409.534 423.65 404.504 426.44 399.064 428.49C393.624 430.5 387.664 431.67 381.584 431.23C375.514 430.82 369.464 428.58 364.594 424.88C359.694 421.2 355.964 416.26 353.424 410.94C350.874 405.6 349.434 399.85 348.904 394.07C348.394 388.29 348.814 382.47 350.014 376.83C352.464 365.55 358.244 355.09 366.234 346.89C367.214 345.84 368.274 344.88 369.304 343.9C370.384 342.97 371.434 341.99 372.574 341.13L374.254 339.81L375.964 338.61L379.394 336.21C381.714 334.66 384.114 333.28 386.464 331.81C388.894 330.5 391.314 329.15 393.764 327.88C403.614 322.91 413.844 318.88 424.264 315.53C434.694 312.19 445.324 309.54 456.124 307.65C466.934 305.79 477.904 304.62 489.124 304.99L488.774 312.83C478.444 312.48 467.884 313.58 457.474 315.38C447.054 317.2 436.744 319.78 426.654 323C416.574 326.24 406.694 330.13 397.314 334.87C394.984 336.08 392.694 337.36 390.384 338.6C388.174 339.98 385.904 341.29 383.744 342.73L380.564 344.96L378.974 346.07L377.484 347.25C376.474 348.01 375.554 348.88 374.584 349.7C373.674 350.58 372.724 351.42 371.874 352.34C364.834 359.56 359.824 368.69 357.694 378.48C356.654 383.37 356.294 388.41 356.724 393.36C357.174 398.3 358.404 403.16 360.504 407.54C362.594 411.91 365.574 415.8 369.304 418.59C373.024 421.4 377.484 423.06 382.164 423.39C386.854 423.73 391.704 422.83 396.344 421.11C400.984 419.36 405.464 416.91 409.654 413.95C413.854 411.01 417.834 407.65 421.594 404.03C422.484 403.17 423.604 402.15 424.694 401.18C425.754 400.16 426.944 399.34 428.084 398.44C429.214 397.52 430.454 396.8 431.644 395.99C432.824 395.17 434.094 394.52 435.334 393.81C440.334 391.07 445.604 388.94 451.034 387.34C456.464 385.76 462.044 384.69 467.724 384.29C473.404 383.91 479.184 384.17 484.884 385.38C486.314 385.6 487.714 386.11 489.134 386.49L490.194 386.8L491.134 387.09L492.964 387.67C494.184 388.05 495.424 388.35 496.654 388.69C497.894 388.94 499.134 389.27 500.384 389.47C510.304 391.33 520.714 390.54 529.404 386.06C538.084 381.68 544.774 373.61 547.204 364.23C548.444 359.56 548.674 354.64 547.874 349.88C547.094 345.11 545.194 340.55 542.544 336.48C537.154 328.3 528.574 322.35 519.104 318.7C509.614 314.95 499.204 313.32 488.784 312.82L489.134 304.98L489.124 305.01Z" fill="#2E100D"/>
</svg>
