<svg width="1500" height="1500" viewBox="0 0 1500 1500" fill="none" xmlns="http://www.w3.org/2000/svg">
<rect width="1500" height="1500" fill="white"/>
<path opacity="0.2" d="M832.065 1241.75C732.079 1241.75 643.69 1247.13 590.217 1255.37C568.018 1250.68 534.145 1247.68 496.179 1247.68C429.315 1247.68 375.113 1256.98 375.113 1268.45C375.113 1279.93 429.315 1289.23 496.179 1289.23C519.344 1289.23 540.983 1288.11 559.387 1286.17C604.037 1297.73 709.313 1305.84 832.072 1305.84C995.289 1305.84 1127.61 1291.49 1127.61 1273.8C1127.61 1256.1 995.289 1241.75 832.072 1241.75H832.065Z" fill="#3D3939"/>
<path fill-rule="evenodd" clip-rule="evenodd" d="M1001.37 795.473L959.966 910.774L861.897 951.791L821.631 1056.21L1063.27 1058.8L1229.47 797.458L1237.58 578.675L1145.88 497.576L1007.12 513.536L947.94 616.389L1001.37 795.473Z" fill="#2F110F"/>
<path fill-rule="evenodd" clip-rule="evenodd" d="M1012.73 795.128L970.438 919.505L864.626 958.713L831.336 1046.79L1053.38 1045.62L1216.55 794.208L1226.33 585.888L1141.97 508.507L1014.12 526.651L962.305 620.965L1012.73 795.128Z" fill="#C93C27"/>
<path fill-rule="evenodd" clip-rule="evenodd" d="M1012.73 795.128L970.436 919.505L864.625 958.713L849.861 997.822L983.812 996.227L1101.13 808.174L1042.64 632.294L1094.38 515.253L1014.12 526.651L962.304 620.965L1012.73 795.128Z" fill="#AF3225"/>
<path fill-rule="evenodd" clip-rule="evenodd" d="M1054.05 1046.33L1216.55 794.208L1226.33 585.888L1141.97 508.5L1177.16 602.798L1181.79 797.688L1038.74 1029.71L838.534 1027.73L831.336 1046.79L1054.05 1046.33Z" fill="#EB6435"/>
<path fill-rule="evenodd" clip-rule="evenodd" d="M1014.12 526.651L977.312 593.638L1042.64 632.294L1177.42 615.576L1212.31 573.011L1141.97 508.507L1014.12 526.651Z" fill="#401714"/>
<path fill-rule="evenodd" clip-rule="evenodd" d="M989.085 713.485L972.789 657.291L1045.95 700.132L1178.7 679.305L1223.42 648.215L1219.22 737.385L1180.18 751.183L1048.12 751.374L989.085 713.485Z" fill="#401714"/>
<path fill-rule="evenodd" clip-rule="evenodd" d="M1012.73 795.128L1001.7 756.909L1067.43 809.815L1169.22 818.124L1216.54 794.208L1174.53 859.386L1137.76 869.106L1052.94 843.143L1008.34 808.044L1012.73 795.128Z" fill="#401714"/>
<path fill-rule="evenodd" clip-rule="evenodd" d="M1110.03 959.441L1149.87 897.659L1110.31 913.71L1051.49 887.794L994.49 848.793L983.514 880.259L1026.22 928.297L1082.96 957.939L1110.03 959.441Z" fill="#401714"/>
<path fill-rule="evenodd" clip-rule="evenodd" d="M1054.06 1046.33L1082.41 1005.79L1057.48 999.362L1002.8 965.872L970.437 919.505L951.305 926.603L979.344 996.212L1014.96 1029.51L1040.37 1046.37L1054.06 1046.33Z" fill="#401714"/>
<path fill-rule="evenodd" clip-rule="evenodd" d="M297.738 736.113C298.827 713.362 324.835 662.526 353.741 648.683C351.05 629.887 375.158 619.577 386.556 614.856C407.567 606.155 437.707 596.796 460.733 594.88C478.54 593.393 504.448 598.536 515.233 606.255C558.059 608.233 597.62 632.363 618.094 652.147C645.927 679.037 662.744 714.32 671.207 752.639C676.887 778.349 678.727 827.315 655.677 869.451C655.654 864.775 651.737 855.983 652.312 851.552C647.368 859.072 642.914 865.495 638.369 872.816C611.563 872.617 541.541 885.379 491.195 918.309C481.997 931.961 447.081 977.654 374.552 941.451C355.788 932.084 307.328 894.47 305.749 859.064C322.068 852.832 343.132 842.155 362.962 834.551C363.905 819.703 363.905 813.87 363.706 798.041C357.673 779.345 347.785 748.584 342.741 735.139C333.045 734.741 306.737 735.73 297.738 736.128V736.113Z" fill="#EBEBED"/>
<path d="M489.717 918.892C518.125 902.895 577.47 874.211 639.589 872.632C652.843 860.168 652.643 830.297 650.466 819.22C656.798 812.298 661.121 803.023 657.388 790.138C653.088 775.275 637.014 732.181 627.915 713.784C582.222 731.981 523.261 750.332 493.205 763.432C482.55 768.077 475.054 775.129 478.963 787.172C494.922 836.306 511.602 878.166 489.717 918.892Z" fill="#CA3C27"/>
<path d="M573.124 620.214L625.547 589.254L638.9 594.596L747.502 614.181L832.954 607.06L907.729 588.364L939.778 593.707L986.069 639.998L1035.92 736.136L1027.02 803.79L1034.14 801.122L986.069 970.257L937.111 1004.08L933.546 1020.99L929.982 1063.72L917.518 1067.28L907.729 1099.33L824.944 1129.6L791.117 1108.23L751.058 1112.69L727.028 1045.92H711.896L700.322 1096.66L690.533 1102L685.191 1109.12L656.706 1116.24L647.807 1108.23L634.454 1109.12L630.89 1116.24L552.558 1070.84L555.225 1036.13L535.641 1029L532.076 991.62L546.318 983.61L538.308 963.136L546.318 934.652L555.517 908.544L562.239 889.258C562.239 889.258 594.288 891.036 614.064 892.822C634.439 894.654 629.985 889.557 629.985 889.557L636.416 898.556L657.381 868.094C657.381 868.094 674.72 824.732 675.578 808.949C676.613 789.808 668.587 739.946 664.303 727.451C649.762 685.024 620.534 654.263 608.522 643.578C596.503 632.892 573.116 620.237 573.116 620.237L573.124 620.214Z" fill="#FF9148"/>
<path d="M634.844 675.013L634.445 666.704L766.189 679.168L754.614 853.637L667.475 846.716C667.475 846.716 680.33 791.127 667.874 744.246C658.967 710.741 641.957 687.024 634.836 675.013H634.844Z" fill="#688A9C"/>
<path d="M631.923 593.263L603.193 637.821L633.057 671.648L659.963 596.083L640.232 595.639L631.923 593.263Z" fill="#C8C9B5"/>
<path opacity="0.54" fill-rule="evenodd" clip-rule="evenodd" d="M478.119 786.52L501.192 867.42C501.192 867.42 509.033 874.954 547.49 867.573C585.939 860.191 579.508 839.158 604.551 828.196C619.314 821.734 622.855 829.89 647.921 819.58C661.036 814.192 659.457 799.589 657.457 792.974C657.457 792.974 640.539 737.447 628.236 713.914C586.859 726.677 548.87 743.909 493.504 763.286C475.176 769.702 478.119 786.512 478.119 786.512V786.52Z" fill="#FFF62E"/>
<path fill-rule="evenodd" clip-rule="evenodd" d="M626.81 845.06C618.739 848.042 612.538 850.203 605.685 853.231C598.671 856.328 596.05 859.248 598.05 864.369C600.764 871.329 607.908 867.604 612.814 865.664C616.623 864.154 627.761 859.716 633.541 857.317C637.465 855.692 638.132 853.599 635.94 848.072C633.755 842.561 630.735 843.611 626.81 845.06Z" fill="#6D6B6B"/>
<path d="M534.412 684.909L547.941 724.485L607.002 701.313L593.864 664.619L534.412 684.909Z" fill="#F9CB4B"/>
<path d="M532.566 729.138L541.074 725.956L527.131 712.527L532.566 729.138Z" fill="#2E100D"/>
<path d="M413.264 605.55C476.863 599.418 541.979 641.094 554.926 677.68C561.442 675.488 563.626 673.626 569.168 672.046C550.503 618.466 472.93 598.26 441.579 597.57C429.905 599.847 427.015 601.403 413.264 605.558V605.55Z" fill="#E14226"/>
<path d="M765 1110.89L801.694 1226.62L772.865 1261.33L790.226 1296.94L910.894 1295.16L934.434 1263.11L903.029 1213.26L896.912 1103.77L827.028 1129.59L793.829 1108.23L765 1110.89Z" fill="#3D3939"/>
<path d="M697.646 1161.63L699.425 1247.98L567.681 1261.33L518.723 1247.98L507.148 1218.61L585.48 1178.55V1155.4C585.48 1155.4 576.136 1156.74 573.906 1142.94C571.683 1129.14 573.016 1098.44 573.016 1098.44C573.016 1098.44 579.248 1088.65 583.702 1090.43C588.155 1092.2 630.882 1116.24 630.882 1116.24C630.882 1116.24 635.335 1104.22 642.456 1105.56C649.577 1106.89 655.365 1110.46 656.698 1116.24L685.183 1109.12C685.183 1109.12 694.527 1094.43 700.314 1096.66C706.101 1098.88 710.999 1100.67 711.889 1108.23C712.778 1115.8 711.889 1153.63 711.889 1153.63C711.889 1153.63 709.221 1168.32 697.646 1161.64V1161.63Z" fill="#3D3939"/>
<path d="M918.505 655.819C916.03 648.2 925.45 643.202 929.98 652.255C932.847 657.988 936.113 667.187 939.869 676.584C936.404 678.263 933.047 679.75 928.708 681.958C928.915 681.413 920.905 663.185 918.505 655.811V655.819Z" fill="#B2B2B2"/>
<path d="M938.289 645.042C935.123 637.622 944.115 632.838 948.974 641.286C951.251 645.241 957.283 659.284 959.851 666.903C955.076 669.264 953.42 670.659 948.775 672.637C946.682 666.665 941.34 652.186 938.289 645.042Z" fill="#B2B2B2"/>
<path d="M957.975 637.821C955.146 629.642 964.206 625.158 969.35 634.256C971.465 638.005 976.448 651.457 979.736 658.486C975.781 660.066 972.316 661.852 967.878 664.159C968.085 663.615 960.742 645.823 957.975 637.813V637.821Z" fill="#B2B2B2"/>
<path d="M655.219 902.695L651.854 960.652L692.012 1046.7L724.651 1047.39L690.525 963.719L693.99 932.168C693.99 932.168 680.936 924.848 671.638 918.516C664.179 913.434 655.219 902.688 655.219 902.688V902.695Z" fill="#6D6B6B"/>
<path d="M929.98 1063.71L810.7 1090.03L727.018 1045.91L711.596 1013.87L811.291 1047.69L933.736 1023.56L929.98 1063.71Z" fill="#6D6B6B"/>
<path d="M531.332 991.912C532.52 1005.56 535.042 1029.45 535.042 1029.45L635.036 1057.79L687.85 1039.39L672.419 1010.31L631.471 1024.55L551.952 999.623L546.318 983.603L531.332 991.912Z" fill="#6D6B6B"/>
<path d="M668.273 861.947C668.273 861.947 670.65 877.377 680.139 886.276C689.637 895.176 697.946 901.706 697.946 901.706L783.996 908.682C783.996 908.682 792.896 904.673 801.205 894.294C809.514 883.908 809.215 875.307 809.215 875.307L668.273 861.954V861.947Z" fill="#919191"/>
<path d="M627.523 893.596L649.676 896.364L637.412 877.568L627.523 893.596Z" fill="#919191"/>
<path d="M565.213 888.453L623.569 894.585L638.6 872.034L596.863 878.166L565.213 888.453Z" fill="#919191"/>
<path d="M822.566 910.016C824.053 910.016 874.192 898.74 874.192 898.74L913.952 881.531L915.286 854.971L866.918 862.682L867.807 869.949L840.955 875.583C840.955 875.583 840.066 884.483 835.022 892.792C829.979 901.101 822.559 910 822.559 910L822.566 910.016Z" fill="#919191"/>
<path d="M917.319 789.939L990.508 825.743L1034.12 801.115L986.943 966.585L975.269 980.429L916.714 1013.66C916.714 1013.66 866.077 974.488 854.004 960.844C863.501 947.79 871.412 939.481 871.412 939.481L875.367 899.92L916.905 877.17L917.304 789.931L917.319 789.939Z" fill="#3D3939"/>
<path d="M667.085 634.065L658.186 669.67L736.517 676.791L746.015 644.743L667.085 634.065Z" fill="#C8C9B5"/>
<path d="M794.673 607.949L770.344 651.864L761.444 679.168L765.599 684.503L759.857 783.807L861.928 790.337V753.935L820.789 715.363L816.036 651.864L840.964 602.607L794.673 607.949Z" fill="#C8C9B5"/>
<path d="M668.272 861.947L807.136 873.813C807.136 873.813 797.194 862.238 804.315 850.073C811.437 837.908 822.268 832.42 835.621 834.789C848.974 837.165 858.026 850.809 855.949 861.494C853.872 872.18 852.837 874.702 840.963 875.591L871.034 869.459L863.913 809.524L758.676 804.58L755.511 853.837L664.117 847.505L668.272 861.947Z" fill="#C8C9B5"/>
<path d="M761.443 679.167L775.087 642.374L794.672 607.949L764.41 611.514L746.013 644.743L736.516 676.791L761.443 679.167Z" fill="#5C513F"/>
<path d="M634.445 666.704L646.311 626.944L659.963 596.083L682.514 602.016C682.514 602.016 669.46 625.457 667.084 634.065C664.708 642.673 658.185 669.67 658.185 669.67L634.445 666.704Z" fill="#5C513F"/>
<path d="M270.252 841.373L299.342 862.667L365.325 831.699L367.379 796.148L342.421 734.082L281.681 735.929L270.252 841.373Z" fill="#3D3939"/>
<path d="M653.731 878.856C649.178 881.623 647.009 885.977 645.422 890.331C647.928 894.34 651.884 901.883 654.636 905.194C660.768 912.576 668.586 918.984 676.773 924.012C687.895 930.842 699.501 937.22 711.581 942.026C724.014 946.97 738.049 946.939 751.165 945.973C768.542 944.693 789.92 940.83 803.956 929.784C822.697 915.036 840.274 891.757 844.436 868.339C845.908 860.053 844.605 850.694 836.648 846.263C830.646 842.929 824.568 844.861 819.761 849.23C814.71 853.829 813.169 860.245 811.383 866.822C808.233 878.366 804.009 887.924 796.252 897.215C787.483 907.716 775.686 912.675 762.617 915.588C754.691 917.359 745.738 918.731 737.566 917.903C731.833 917.321 725.816 915.581 720.067 914.676C708.615 912.882 691.751 902.358 684.346 893.344C675.738 882.865 669.958 871.927 666.195 859.271C661.45 872.724 660.262 876.48 653.731 878.856Z" fill="#6D6B6B"/>
<path d="M850.906 874.702C863.071 856.75 852.14 839.181 836.664 834.344C822.958 830.059 806.133 839.303 802.982 854.672C801.549 861.671 802.837 870.769 809.069 875.89C810.701 871.881 813.614 864.193 814.112 859.57C814.779 853.415 817.692 844.562 832.509 845.328C841.117 845.773 843.639 849.115 843.93 857.271C844.045 860.375 841.853 873 840.818 876.557C844.383 875.668 847.418 876.189 850.906 874.702Z" fill="#7A7A7A"/>
<path d="M700.489 710.419L697.354 754.356L717.628 756.012L722.373 711.707L700.489 710.419Z" fill="#45ADE8"/>
<path d="M714.563 765.41L693.2 764.222L696.757 780.05L691.613 795.481L714.165 795.872L714.563 765.41Z" fill="#D8D6D4"/>
<path d="M682.116 765.019L686.079 780.051L679.747 795.082L670.648 793.105L675.792 778.464L671.039 763.432L682.116 765.019Z" fill="#D8D6D4"/>
<path d="M693.201 764.222L682.117 765.019L686.08 780.05L679.748 795.082L691.614 795.481L696.757 780.05L693.201 764.222Z" fill="#6292AB"/>
<path d="M678.506 708.388L677.172 729.759L698.688 732.127L699.723 709.875L678.506 708.388Z" fill="#D8D6D4"/>
<path d="M666.342 707.943L664.908 728.616L654.031 707.253L666.342 707.943Z" fill="#3F363B"/>
<path d="M1003.87 816.545L1000 788.36L1030.86 775.298L1028.2 803.79L1003.87 816.545Z" fill="#D8D6D4"/>
<path fill-rule="evenodd" clip-rule="evenodd" d="M632.069 1122.45C637.91 1123.73 642.425 1124.65 648.596 1124.06C650.052 1123.92 654.651 1123.81 655.51 1122.72C656.307 1121.72 655.625 1117.79 655.51 1116.34C655.234 1113.05 654.161 1109.44 650.911 1107.63C647.17 1105.55 640.524 1105.27 636.822 1107.57C632.851 1110.03 630.375 1118.24 631.832 1122.14C632.384 1122.4 632.1 1121.95 632.069 1122.44V1122.45Z" fill="#919191"/>
<path fill-rule="evenodd" clip-rule="evenodd" d="M632.068 1155.45C638.155 1157.32 649.338 1157.31 655.448 1153.62C656.199 1160.97 652.274 1168.47 644.371 1168.16C637.089 1167.87 632.398 1162.42 632.068 1155.45Z" fill="#919191"/>
<path fill-rule="evenodd" clip-rule="evenodd" d="M687.856 1115.63C693.697 1116.91 698.212 1117.83 704.383 1117.24C705.839 1117.1 710.438 1116.99 711.297 1115.9C712.094 1114.9 711.412 1110.97 711.297 1109.52C711.021 1106.22 709.948 1102.61 706.698 1100.8C702.957 1098.73 696.311 1098.45 692.609 1100.74C688.638 1103.2 686.162 1111.42 687.619 1115.32C688.171 1115.58 687.887 1115.12 687.856 1115.62V1115.63Z" fill="#919191"/>
<path fill-rule="evenodd" clip-rule="evenodd" d="M687.857 1148.63C693.944 1150.5 705.127 1150.49 711.237 1146.8C711.988 1154.15 708.063 1161.65 700.16 1161.34C692.878 1161.05 688.187 1155.6 687.857 1148.63Z" fill="#919191"/>
<path fill-rule="evenodd" clip-rule="evenodd" d="M572.726 1108.21C578.567 1109.49 583.081 1110.41 589.252 1109.82C590.708 1109.68 595.308 1109.57 596.166 1108.48C596.963 1107.48 596.281 1103.55 596.166 1102.1C595.89 1098.8 594.817 1095.19 591.567 1093.38C587.826 1091.31 581.18 1091.03 577.478 1093.32C573.507 1095.78 571.032 1104 572.488 1107.9C573.04 1108.16 572.756 1107.7 572.726 1108.2V1108.21Z" fill="#919191"/>
<path fill-rule="evenodd" clip-rule="evenodd" d="M572.725 1141.21C578.811 1143.08 589.995 1143.07 596.104 1139.38C596.855 1146.73 592.93 1154.23 585.027 1153.92C577.745 1153.63 573.054 1148.18 572.725 1141.21Z" fill="#919191"/>
<path d="M631.479 891.021C631.686 882.712 606.674 899.131 603.585 900.365C592.125 904.949 578.235 900.25 566.921 904.803C549.812 911.687 564.683 931.892 576.127 935.38C590.063 939.634 605.784 939.427 617.988 930.62C623.905 926.343 631.916 918.455 634.322 911.349C636.377 905.286 635.434 891.535 631.479 891.021Z" fill="#EBEBED"/>
<path d="M474.295 938.768C492.178 939.159 538.384 935.802 564.5 929.271C562.553 925.553 560.652 917.397 558.268 913.841C531.823 917.045 506.642 921.552 486.46 922.449C484.191 924.488 476.702 935.756 474.295 938.768Z" fill="#5C513F"/>
<path d="M635.933 899.131C642.756 891.121 645.822 885.977 651.463 877.369C645.132 875.491 647.109 867.082 649.585 858.474C642.464 869.451 636.531 876.871 629.111 889.036C631.189 893.78 638.34 896.111 635.933 899.123V899.131Z" fill="#5C513F"/>
<path fill-rule="evenodd" clip-rule="evenodd" d="M353.721 647.096C418.408 624.146 486.246 631.804 522.357 700.209C526.014 696.353 530.536 689.837 534.721 685.468C536.699 684.28 539.175 683.391 541.091 682.402C502.972 607.236 410.413 607.727 377.36 620.091C371.397 622.322 357.385 626.721 353.721 647.096Z" fill="#E14226"/>
<path fill-rule="evenodd" clip-rule="evenodd" d="M534.229 687.247L518.6 707.429L532.451 747.979L546.693 725.428L534.229 687.247Z" fill="#CE9E34"/>
<path fill-rule="evenodd" clip-rule="evenodd" d="M536.008 747.78C549.008 745.94 561.594 737.439 573.798 732.924C582.482 729.713 594.586 727.789 602.037 722.553C601.04 717.402 603.922 711.262 603.194 705.889C586.522 712.09 569.536 718.858 552.649 724.63C546.632 726.685 546.042 727.835 543.704 734.097C542.04 738.574 539.38 742.966 536 747.78H536.008Z" stroke="black" stroke-miterlimit="10"/>
<path d="M520.6 707L546.301 725.658L541.978 709.216L526.318 699.22L520.6 707Z" fill="#2E100D"/>
<path d="M533.141 744.223L540.952 733.438L524.533 721.074L533.141 744.223Z" fill="#2E100D"/>
<path d="M604.849 702.876C591.972 711.645 571.321 714.236 556.167 720.1C545.612 724.186 538.46 735.201 534.766 745.971C543.918 744.139 552.81 738.873 561.824 735.86C569.811 733.193 577.998 731.123 585.985 728.425C589.856 727.114 598.932 724.868 601.446 721.434C604.137 717.747 604.022 707.46 604.849 702.876Z" fill="#464445"/>
<path d="M420.883 877.944L435.715 926.013L470.73 915.926L459.455 868.447L420.883 877.944Z" fill="#E14226"/>
<path d="M392 804.756C398.338 804.756 403.475 799.618 403.475 793.281C403.475 786.943 398.338 781.806 392 781.806C385.663 781.806 380.525 786.943 380.525 793.281C380.525 799.618 385.663 804.756 392 804.756Z" fill="#F9CB4B"/>
<path d="M414.551 827.307C420.889 827.307 426.026 822.17 426.026 815.832C426.026 809.495 420.889 804.357 414.551 804.357C408.214 804.357 403.076 809.495 403.076 815.832C403.076 822.17 408.214 827.307 414.551 827.307Z" fill="#F9CB4B"/>
<path d="M362.351 821.589C365.754 821.32 375.819 822.547 387.577 836.636C394.085 844.431 399.328 856.849 405.261 869.121C408.297 875.399 411.761 874.111 415.763 872.778C424.493 869.872 441.388 864.606 448.823 861.755C457.761 858.091 454.641 848.233 445.435 851.859C439.954 853.676 421.144 859.977 414.107 862.529C411.915 863.326 409.339 862.33 408.565 860.13C395.58 823.229 370.652 811.149 362.496 813.877C363.033 817.411 361.945 819.956 362.351 821.589Z" fill="#F9CB4B"/>
<path d="M457.077 950.933C473.696 942.233 491.303 911.028 492.882 904.642C420.284 951.324 332.854 908.598 332.854 908.598C332.854 908.598 371.034 966.164 457.077 950.933Z" fill="#B2B2B2"/>
<path d="M760.056 784.795L758.477 805.568L916.129 809.922L916.328 790.337L760.056 784.795Z" fill="#5C513F"/>
<path d="M535.195 686.58L566.792 716.697L578.267 711.898L545.727 682.326L535.195 686.58Z" fill="#2E100D"/>
<path d="M547.804 723.971L559.969 719.219L543.795 708.832L547.804 723.971Z" fill="#2E100D"/>
<path d="M555.516 679.313L588.308 708.541L598.15 704.486L565.212 675.802L555.516 679.313Z" fill="#2E100D"/>
<path d="M574.311 673.426L606.359 700.822L602.795 686.779L583.808 670.26L574.311 673.426Z" fill="#2E100D"/>
<path d="M763.522 681.835L734.54 703.497L726.729 832.565L709.121 831.477L710.409 796.569L698.934 796.27L697.647 831.186L687.459 830.488L688.157 795.58L677.571 794.683L675.693 829.208L665.307 848.793L756.915 854.45L763.522 681.835Z" fill="#3B6472"/>
<path fill-rule="evenodd" clip-rule="evenodd" d="M667.23 634.954L746.16 645.486L764.702 612.257L745.417 614.035C745.417 614.035 696.014 604.982 680.729 602.614L667.23 634.954Z" fill="#DD6F37"/>
<path fill-rule="evenodd" clip-rule="evenodd" d="M820.191 716.152L857.46 689.96L871.725 631.987L917.119 651.572L928.494 683.023L923.159 686.288L957.278 777.973L981.216 768.376L990.66 825.299L918.016 787.762L862.726 788.16L861.339 753.344L820.191 716.152Z" fill="#DD6F37"/>
<path fill-rule="evenodd" clip-rule="evenodd" d="M826.324 1087.75L820.092 1126.91L791.608 1102.88L749.77 1113.56L726.629 1047.69L803.182 1089.53L826.324 1087.75Z" fill="#DD6F37"/>
<path fill-rule="evenodd" clip-rule="evenodd" d="M834.333 1040.57L809.413 989.834L758.676 971.138L699.922 988.048L709.71 1015.64L808.524 1048.58L834.333 1040.57Z" fill="#DD6F37"/>
<path fill-rule="evenodd" clip-rule="evenodd" d="M710.607 1048.58L698.144 1096.65L688.347 1099.32L683.902 1107.34L654.52 1114.46L650.075 1105.55H634.943L627.822 1112.67L597.107 1048.58L634.943 1056.59L687.458 1039.68L689.237 1047.69L710.607 1048.58Z" fill="#DD6F37"/>
<path fill-rule="evenodd" clip-rule="evenodd" d="M673.216 1010.6L631.678 1025.14L572.18 1007.19L603.485 956.299L658.974 982.713L673.216 1010.6Z" fill="#DD6F37"/>
<path fill-rule="evenodd" clip-rule="evenodd" d="M552.158 1071.72L598.441 1048.88L554.527 1038.19L552.158 1071.72Z" fill="#FFB685"/>
<path fill-rule="evenodd" clip-rule="evenodd" d="M846.797 597.271L871.724 631.987L938.489 594.596L885.967 585.252L866.382 595.485L846.797 597.271Z" fill="#FFB685"/>
<path fill-rule="evenodd" clip-rule="evenodd" d="M923.895 684.947L1003.27 706.609L982.795 657.796L923.895 684.947Z" fill="#FFB685"/>
<path fill-rule="evenodd" clip-rule="evenodd" d="M925.084 685.391L936.904 689.255L981.807 765.21L957.278 777.084L925.084 685.391Z" fill="#DD6F37"/>
<path fill-rule="evenodd" clip-rule="evenodd" d="M809.413 989.834L778.951 943.988L804.024 930.489L827.909 909.716L858.471 903.186L809.413 989.834Z" fill="#FFB685"/>
<path d="M703.878 766.007L707.243 781.238L702.689 795.871L714.755 796.469L715.552 766.797L703.878 766.007Z" fill="#9B9692"/>
<path fill-rule="evenodd" clip-rule="evenodd" d="M811.591 872.923C804.692 886.054 798.215 900.127 784.44 907.93C773.831 913.94 762.472 915.672 750.629 916.837C729.12 918.953 705.81 912.614 689.345 899.016C683.941 894.554 673.914 884.681 669.445 895.758C664.793 907.302 687.704 918.976 695.868 922.042C726.153 933.394 762.196 937.779 791.354 921.981C806.371 913.848 820.965 901.507 825.396 884.306C826.806 878.817 827.366 873.16 821.065 871.122C817.731 870.041 811.46 871.328 811.583 872.915L811.591 872.923Z" fill="#919191"/>
<path fill-rule="evenodd" clip-rule="evenodd" d="M631.925 1025.14L635.037 1057.92L535.932 1029.29L531.785 993.092L631.925 1025.14Z" fill="#B2B2B2"/>
<path fill-rule="evenodd" clip-rule="evenodd" d="M933.836 1024.25L929.682 1064.01L811.59 1089.83L811.291 1048.28L933.836 1024.25Z" fill="#B2B2B2"/>
<path fill-rule="evenodd" clip-rule="evenodd" d="M692.755 932.268L690.977 963.427L651.516 959.717C651.516 959.717 653.447 925.147 655.816 903.638C669.759 922.778 692.755 932.268 692.755 932.268Z" fill="#B2B2B2"/>
<path opacity="0.45" fill-rule="evenodd" clip-rule="evenodd" d="M497.88 846.493L497.466 817.227C497.183 796.906 509.777 778.625 528.871 771.664L638.523 731.667L628.734 712.527L489.425 764.152C478.456 768.138 474.915 779.245 478.295 790.414L497.88 846.493Z" fill="#CA3C27"/>
<path d="M693.491 933.901L691.414 963.274L711.597 1013.86L716.932 1016.04L699.524 965.397L703.878 938.791L693.491 933.901Z" fill="#C1532D"/>
<path d="M642.554 1070.83L710.009 1055.4L712.385 1047.29L692.402 1046.9L688.646 1038.98L634.644 1057.58L557.301 1037.41L642.554 1070.83Z" fill="#C1532D"/>
<path d="M811.437 1100.86L740.64 1080.58L730.768 1051.55L808.325 1089.23L919.893 1067.57L811.437 1100.86Z" fill="#C1532D"/>
<path fill-rule="evenodd" clip-rule="evenodd" d="M687.068 682.724L690.035 696.476L704.476 675.304L698.344 674.024L687.068 682.724Z" fill="#3B6472"/>
<path d="M668.271 861.946L672.227 874.464L806.247 885.678L811.291 875.146L668.271 861.946Z" fill="#6D6B6B"/>
<path d="M837.598 886.077L871.225 876.48L870.934 869.359L842.35 875.2L837.598 886.077Z" fill="#6D6B6B"/>
<path d="M834.465 809.24L760.456 804.97L759.49 822.11L833.261 826.364C838.228 826.716 842.444 822.784 842.444 817.809C842.444 813.302 838.964 809.554 834.465 809.24Z" fill="#A09F88"/>
<path d="M808.324 842.952L756.829 838.858L755.525 855.975L802.368 859.493C801.778 855.484 805.434 846.961 808.324 842.952Z" fill="#A09F88"/>
<path d="M834.365 758.135L761.644 753.643L760.717 770.783L833.169 775.259C838.136 775.604 842.352 771.672 842.352 766.697C842.352 762.19 838.865 758.449 834.365 758.135Z" fill="#A09F88"/>
<path d="M798.361 725.397L763.56 723.151L762.533 740.29L797.165 742.521C802.132 742.866 806.348 738.933 806.348 733.959C806.348 729.451 802.86 725.711 798.361 725.397Z" fill="#A09F88"/>
<path d="M791.538 691.662L767.73 689.998L766.182 707.1L790.343 708.786C795.31 709.131 799.526 705.199 799.526 700.224C799.526 695.717 796.038 691.976 791.538 691.662Z" fill="#A09F88"/>
<path d="M659.861 666.903L740.048 673.005L745.621 656.179L664.116 650.676L659.861 666.903Z" fill="#A09F88"/>
<path d="M640.845 648.882L613.58 646.728C608.612 646.383 619.712 658.594 623.468 664.297L635.272 665.707L640.845 648.882Z" fill="#A09F88"/>
<path d="M794.895 659.613L771.17 657.958L766.111 674.814L793.699 676.738C798.666 677.083 802.882 673.15 802.882 668.175C802.882 663.668 799.394 659.928 794.895 659.613Z" fill="#A09F88"/>
<path d="M607.418 934.912C621.66 928.382 630.56 919.881 634.714 906.627C590.21 940.853 560.338 919.091 560.338 919.091C560.338 919.091 565.083 945.797 607.418 934.92V934.912Z" fill="#B2B2B2"/>
<path fill-rule="evenodd" clip-rule="evenodd" d="M917.118 809.125L866.082 810.313L868.704 861.946L914.849 855.27L917.118 809.125Z" fill="#DD6F37"/>
<path d="M766.19 680.348L734.54 703.497L690.035 696.476L704.477 675.304L766.19 680.348Z" fill="#95B6C1"/>
<path d="M698.434 674.315L686.967 682.525L650.564 679.167L661.74 671.05L698.434 674.315Z" fill="#95B6C1"/>
<path d="M662.14 670.26L650.466 679.167L646.12 688.266L633.855 667.892L662.14 670.26Z" fill="#95B6C1"/>
<path opacity="0.32" d="M627.601 785.562C612.96 789.916 562.323 808.703 543.528 817.802C535.993 821.451 506.267 835.639 514.446 852.418C518.401 860.528 535.779 859.279 542.34 857.163C554.175 853.354 564.5 840.714 573.591 832.435C584.085 822.876 593.705 816.629 607.817 813.448C617.644 811.233 628.345 812.95 638.08 810.88C645.055 809.393 651.21 802.97 649.754 795.45C647.891 785.868 639.766 781.108 627.601 785.562Z" fill="#FFF62E"/>
<path fill-rule="evenodd" clip-rule="evenodd" d="M554.129 913.61C556.244 913.304 558.743 913.718 560.475 912.407C562.491 910.889 562.951 907.785 565.305 906.428C568.501 904.581 573.522 904.849 577.086 904.374C584.682 903.362 592.593 902.25 600.021 900.365C605.31 899.023 610.507 896.877 614.868 893.504C614.899 893.481 614.93 893.458 614.953 893.435L561.15 887.157L553.193 913.748C553.508 913.695 553.822 913.649 554.121 913.603L554.129 913.61Z" fill="#FFB685"/>
<path fill-rule="evenodd" clip-rule="evenodd" d="M566.072 931.378C562.876 929.6 560.522 929.608 556.697 930.482C554.313 931.026 550.044 932.95 547.208 932.528L536.967 963.128L543.245 972.917L587.995 936.974C580.092 936.568 573.047 935.272 566.064 931.378H566.072Z" fill="#FFB685"/>
<path fill-rule="evenodd" clip-rule="evenodd" d="M934.434 972.618L970.629 961.641L1007.42 841.763L973.596 852.449L960.542 937.902L934.434 972.618Z" fill="#7F6F6F"/>
<path fill-rule="evenodd" clip-rule="evenodd" d="M886.067 1124.54L833.844 1146.21L858.917 1215.78L854.617 1247.23L916.039 1261.33L886.957 1212.96L886.067 1124.54Z" fill="#7F6F6F"/>
<path fill-rule="evenodd" clip-rule="evenodd" d="M616.196 1175.14L602.697 1156.44L600.03 1185.57L523.867 1222.36L601.409 1213.26L628.315 1190.12L616.196 1175.14Z" fill="#7F6F6F"/>
<path fill-rule="evenodd" clip-rule="evenodd" d="M315.324 807.346L320.222 755.72L292.067 745.012L282.869 828.686L315.324 807.346Z" fill="#7F6F6F"/>
<path fill-rule="evenodd" clip-rule="evenodd" d="M710.516 260.611L816.795 268.384L969.672 244.844L1019.27 259.707L981.032 345.88L1000.33 375.898L1005.94 438.324L960.228 477.723L992.806 544.059L962.045 534.745L976.003 577.464L828.354 612.564L741.844 618.826L636.967 599.034L495.297 545.14L514.844 504.667L483.109 509.78L524.272 448.404L486.651 404.343L503.683 339.993L648.013 201.489C666.647 199.082 676.137 196.828 698.052 194" fill="#2E100D"/>
<path fill-rule="evenodd" clip-rule="evenodd" d="M862.672 289.234C994.04 152.033 944.622 489.129 943.234 472.181L938.459 473.14L935.799 469.062C905.912 423.169 826.913 333.125 862.672 289.234Z" fill="#2E100D"/>
<path fill-rule="evenodd" clip-rule="evenodd" d="M646.219 274.677C517.519 242.567 532.918 500.098 541.887 445.192L546.493 446.786L549.675 443.099C585.441 401.622 675.784 322.969 646.227 274.685" fill="#2E100D"/>
<path fill-rule="evenodd" clip-rule="evenodd" d="M814.987 280.25L852.677 289.762L889.593 364.231L907.269 347.881L901.52 377.246L928.257 386.284L904.947 395.498L968.101 524.114L942.047 516.226L959.416 569.377L829.558 602.583L732.838 603.311L637.09 589.644L512.844 539.352L537.166 488.999L510.291 493.33L590.094 374.326L568.233 362.077L595.943 356.696L594.172 326.824L609.495 345.397L646.25 281.668L651.869 291.786L696.88 272.301L814.987 280.25Z" fill="#CA3C27"/>
<path fill-rule="evenodd" clip-rule="evenodd" d="M637.281 485.726L599.568 453.731L608.636 403.37L570.877 507.718L608.652 578.131L637.082 589.644L744.067 609.176L829.55 602.583L882.655 529.249L852.423 426.91L820.229 487.711L787.222 504.222L753.395 505.111L726.391 479.594L637.281 485.726Z" fill="#771213"/>
<path fill-rule="evenodd" clip-rule="evenodd" d="M890.358 363.526L907.268 347.881L901.519 377.247L928.255 386.284L904.945 395.498L968.099 524.114L942.045 516.226L959.415 569.377L899.978 584.578L940.704 554.967L882.348 349.391L890.358 363.526Z" fill="#EB6337"/>
<path fill-rule="evenodd" clip-rule="evenodd" d="M714.802 468.272L754.424 502.72L786.058 503.985L801.849 542.334L756.631 601.671L742.565 608.9L673.102 596.053L613.053 544.235L612.838 501.9L636.117 485.557L675.272 465.612L714.802 468.272Z" fill="#FDE6D5"/>
<path fill-rule="evenodd" clip-rule="evenodd" d="M713.153 577.364L758.256 531.135L801.848 542.334L756.631 601.671L742.565 608.899L673.102 596.052L613.052 544.235L612.914 517.797L614.501 517.215L620.572 530.506L622.864 539.95L655.196 571.6L713.153 577.364Z" fill="#EEBC92"/>
<path fill-rule="evenodd" clip-rule="evenodd" d="M722.488 400.074L723.04 345.359L763.383 341.457L758.232 392.57L722.488 400.074Z" fill="#EEBC92"/>
<path fill-rule="evenodd" clip-rule="evenodd" d="M790.671 371.643L772.359 350.909L767.867 392.845L784.524 392.347L790.671 371.643Z" fill="#EEBC92"/>
<path fill-rule="evenodd" clip-rule="evenodd" d="M854.469 327.414L852.668 289.763L965.386 261.263L1000.61 270.737L961.645 349.521L985.14 378.665L958.725 433.993L987.753 405.884L992.061 434.2L951.972 468.755L916.344 418.7L949.925 392.615L932.05 354.58L952.508 297.773L882.348 349.391L854.469 327.414Z" fill="#FDE6D5"/>
<path fill-rule="evenodd" clip-rule="evenodd" d="M952.502 297.773L882.349 349.391L854.471 327.414L882.104 334.145L952.51 297.773H952.502ZM951.973 468.755L916.337 418.708L949.927 392.615L932.044 354.588L952.495 297.78L940.521 355.186L962.03 382.85L958.719 434.008L951.966 468.77L951.973 468.755Z" fill="#EEBC92"/>
<path fill-rule="evenodd" clip-rule="evenodd" d="M852.669 289.763L814.986 280.25L965.387 261.271L852.669 289.763Z" fill="#771213"/>
<path fill-rule="evenodd" clip-rule="evenodd" d="M661.742 476.397L627.271 463.021L621.139 454.26L640.953 433.226L662.378 440.301L673.247 467.544L661.742 476.397Z" fill="#2E100D"/>
<path fill-rule="evenodd" clip-rule="evenodd" d="M644.739 440.892L661.012 445.567L667.343 465.697L657.524 474.765L635.126 466.072L632.037 454.222L644.739 440.892Z" fill="#771213"/>
<path fill-rule="evenodd" clip-rule="evenodd" d="M646.678 445.491L659.333 449.622L662.614 461.956L652.948 470.518L640.14 465.635L637.135 454.613L646.678 445.491Z" fill="#2E100D"/>
<path fill-rule="evenodd" clip-rule="evenodd" d="M653.203 444.924L659.826 446.924L661.681 454.406L656.192 459.273L649.217 457.288L647.193 450.228L653.203 444.924Z" fill="#FDE6D5"/>
<path fill-rule="evenodd" clip-rule="evenodd" d="M662.393 440.133L672.021 468.709L680.33 460.177L671.239 431.9L635.933 420.525L611.58 444.709L621.139 454.26L639.558 434.706L662.393 440.133Z" fill="#FDE6D5"/>
<path fill-rule="evenodd" clip-rule="evenodd" d="M788.61 465.405L764.679 442.708L739.537 449.308L725.271 476.068L745.638 484.683L783.612 471.009L788.61 465.405Z" fill="#2E100D"/>
<path fill-rule="evenodd" clip-rule="evenodd" d="M876.424 537.858L829.559 602.583L899.98 584.578L921.343 535.06L902.755 510.914L921.665 511.865L852.424 426.902L876.424 537.858Z" fill="#FDE6D5"/>
<path fill-rule="evenodd" clip-rule="evenodd" d="M714.799 468.272L714.248 443.705L701.876 442.869L689.504 442.041L675.27 465.612L714.799 468.272Z" fill="#EB6337"/>
<path fill-rule="evenodd" clip-rule="evenodd" d="M762.517 448.181L742.028 453.685L735.957 472.143L748.459 483.664L772.597 474.941L777.603 463.182L762.517 448.181Z" fill="#771213"/>
<path fill-rule="evenodd" clip-rule="evenodd" d="M760.57 452.474L747.094 455.846L742.963 469.307L753.541 478.06L765.982 474.09L770.236 462.025L760.57 452.474Z" fill="#2E100D"/>
<path fill-rule="evenodd" clip-rule="evenodd" d="M761.681 450.42L754.774 452.336L752.49 459.71L758.132 464.892L765.621 463.305L768.066 456.36L761.681 450.42Z" fill="#FDE6D5"/>
<path fill-rule="evenodd" clip-rule="evenodd" d="M702.283 322.056L806.478 279.514L754.767 276.034L703.057 272.562L702.283 322.056Z" fill="#EB6337"/>
<path fill-rule="evenodd" clip-rule="evenodd" d="M829.559 602.583L846.921 578.599L888.275 563.414L905.008 534.899L902.755 510.914L921.343 535.06L899.98 584.578L829.559 602.583Z" fill="#EEBC92"/>
<path fill-rule="evenodd" clip-rule="evenodd" d="M763.384 341.457L723.042 345.351L722.566 392.777L741.277 386.729L763.384 341.457Z" fill="#FDE6D5"/>
<path fill-rule="evenodd" clip-rule="evenodd" d="M790.672 371.643L772.359 350.909L776.161 385.395L790.672 371.643Z" fill="#FDE6D5"/>
<path fill-rule="evenodd" clip-rule="evenodd" d="M617.705 331.163L609.495 345.397L594.172 326.824L595.943 356.696L568.233 362.077L590.094 374.326L510.291 493.33L537.166 488.999L512.844 539.352L569.705 562.364L533.318 527.578L617.705 331.163Z" fill="#EB6337"/>
<path fill-rule="evenodd" clip-rule="evenodd" d="M686.707 395.82L700.366 342.829L662.415 328.603L654.137 379.301L686.707 395.82Z" fill="#EEBC92"/>
<path fill-rule="evenodd" clip-rule="evenodd" d="M628.551 361.395L651.616 346.118L645.077 387.786L629.118 382.988L628.551 361.395Z" fill="#EEBC92"/>
<path fill-rule="evenodd" clip-rule="evenodd" d="M651.869 291.786L696.88 272.309L688.517 210.189L651.869 291.786Z" fill="#771213"/>
<path fill-rule="evenodd" clip-rule="evenodd" d="M570.876 507.718L608.65 578.131L553.184 552.958L535.761 491.912L548.386 477.493L529.514 475.899L609.509 400.978L570.876 507.718Z" fill="#FDE6D5"/>
<path fill-rule="evenodd" clip-rule="evenodd" d="M608.651 578.131L594.654 552.038L564.729 536.217L550.74 494.464L548.386 477.493L535.762 491.92L554.066 556.032L608.651 578.131Z" fill="#EEBC92"/>
<path fill-rule="evenodd" clip-rule="evenodd" d="M662.416 328.595L700.367 342.829L688.532 388.752L672.021 378.059L662.416 328.595Z" fill="#FDE6D5"/>
<path fill-rule="evenodd" clip-rule="evenodd" d="M628.551 361.395L651.616 346.118L638.999 378.435L628.551 361.395Z" fill="#FDE6D5"/>
<path fill-rule="evenodd" clip-rule="evenodd" d="M651.869 291.786L660.791 271.91L688.517 210.189L652.344 214.857L540.063 321.175L512.882 346.907L531.646 405.279L506.65 373.529L498.586 401.024L533.685 440.631L575.699 395.797L545.911 365.45L568.716 330.151L637.573 270.224L617.705 331.163L651.869 291.786Z" fill="#FDE6D5"/>
<path fill-rule="evenodd" clip-rule="evenodd" d="M637.573 270.224L617.713 331.155L651.877 291.778L634.684 301.72L637.573 270.224ZM533.693 440.631L575.707 395.797L545.919 365.442L568.731 330.143L637.589 270.216L560.254 329.591L535.234 354.12L543.007 404.688L533.701 440.608L533.693 440.631Z" fill="#EEBC92"/>
<path fill-rule="evenodd" clip-rule="evenodd" d="M738.356 451.516L724.727 477.08L715.283 468.885L732.369 440.424L765.813 429.608L799.172 456.406L788.609 465.405L764.678 442.708L738.356 451.516Z" fill="#FDE6D5"/>
<path fill-rule="evenodd" clip-rule="evenodd" d="M664.669 482.89L690.968 480.13L712.14 468.096L675.27 465.612L638.975 476.635L664.669 482.89Z" fill="#EEBC92"/>
<path fill-rule="evenodd" clip-rule="evenodd" d="M664.723 482.1L690.969 480.122L693.981 487.236L667.666 507.005L666.31 523.209L703.004 535.642L746.68 525.67L751.992 514.448L756.231 515.605L758.255 531.135L748.497 531.127L700.183 545.346L661.304 532.032L632.498 536.255L626.688 529.387L620.571 530.506L614.5 517.215L618.716 513.934L630.038 527.218L657.602 522.864L658.483 506.384L635.043 483.273L638.983 476.635L664.723 482.1Z" fill="#2E100D"/>
<path fill-rule="evenodd" clip-rule="evenodd" d="M737.275 487.803C745.569 490.609 786.134 504.123 786.134 504.123L755.074 503.233L737.268 487.803H737.275Z" fill="#EEBC92"/>
<path d="M483.439 862.636C482.657 857.937 481.607 853.285 480.273 848.724C478.931 844.163 477.345 839.679 475.559 835.271L472.263 836.628C474.003 840.921 475.543 845.282 476.854 849.713C478.15 854.151 479.161 858.666 479.92 863.211C481.446 872.302 481.775 881.616 480.564 890.707C479.951 895.244 478.939 899.729 477.46 904.037C476.21 907.67 474.616 911.188 472.631 914.446C469.687 902.166 466.169 890.04 462.827 877.867C461.822 874.226 460.841 870.578 459.898 866.921C459.538 865.541 458.151 865.304 457.162 865.81C447.726 868.309 438.344 870.961 428.931 873.529C425.918 874.349 422.898 875.161 419.886 875.959C418.881 876.227 418.276 877.323 418.544 878.32C421.902 890.676 425.949 902.833 429.805 915.044C430.732 917.987 431.644 920.931 432.541 923.882C421.664 925.269 410.342 925.024 399.389 923.905C385.231 922.464 371.226 919.375 357.705 914.952C349.511 912.277 341.5 909.08 333.728 905.363C332.793 904.918 331.658 905.102 331.106 906.053C330.616 906.888 330.853 908.229 331.796 908.674C345.755 915.351 360.457 920.448 375.557 923.844C388.887 926.849 402.577 928.612 416.252 928.642C422.446 928.658 428.639 928.274 434.779 927.408C435.032 927.446 435.301 927.446 435.577 927.408C441.908 926.496 448.209 925.361 454.379 923.675C459.63 922.242 464.766 920.433 469.856 918.516C467.694 921.345 465.211 923.92 462.397 926.074C458.833 928.78 454.801 930.834 450.508 932.122L451.513 935.541C456.211 934.138 460.657 931.869 464.567 928.903C468.461 925.921 471.757 922.226 474.47 918.202C477.191 914.17 479.276 909.755 480.84 905.194C482.411 900.633 483.469 895.927 484.106 891.174C485.378 881.669 485.018 872.019 483.446 862.629L483.439 862.636ZM453.345 919.988C447.772 921.506 442.107 922.579 436.404 923.445C432.763 911.449 428.77 899.56 425.167 887.556C424.332 884.766 423.534 881.968 422.752 879.17C431.606 876.809 440.429 874.318 449.274 871.904C451.75 871.229 454.234 870.57 456.717 869.911C459.86 881.838 463.34 893.665 466.46 905.6C467.265 908.674 468.031 911.763 468.783 914.852C463.7 916.761 458.58 918.57 453.345 919.996V919.988Z" fill="#7F6F6F"/>
<path d="M728.82 833.225L727.655 832.42L727.709 831.668L727.924 828.495L728.728 815.794C729.748 798.861 730.652 781.928 731.595 764.996C732.553 748.063 733.481 731.13 734.684 714.228L735.167 707.897L735.443 704.739L735.581 703.16V703.098L736.164 702.692L746.573 695.395C753.541 690.558 760.463 685.622 767.216 680.478L766.143 679.06C759.405 684.188 752.522 689.102 745.554 693.938L735.137 701.243L734.416 701.749L734.186 701.91L690.762 696.606C695.469 689.669 700.137 682.969 704.721 675.902L703.226 674.928C698.956 681.521 694.419 687.944 689.973 694.46L687.589 683.184L698.979 674.836L697.883 673.434L686.976 681.459L652.321 678.447L663.328 670.812L662.332 669.34L649.761 678.064L644.717 689.278L646.326 690.037L651.01 680.11L685.741 683.161L688.999 698.377L733.765 703.558L733.673 704.585L733.397 707.759L732.914 714.106C731.71 731.038 730.783 747.971 729.825 764.904C728.874 781.836 727.977 798.769 726.958 815.694L726.153 828.38L725.938 831.507L713.482 830.825L709.542 830.611L710.715 796.799L708.937 796.738L707.772 830.511H707.695C707.695 830.511 707.657 830.503 707.641 830.511L707.672 830.557L707.764 830.718L707.749 831.063H707.963L708.645 832.259L709.833 834.313L712.44 838.836L702.804 837.862L698.167 831.201H698.451L699.7 796.308L697.922 796.247L696.703 830.465L687.826 829.836L688.969 795.58L687.19 795.519L686.025 830.664L686.431 830.68L689.022 837.417L679.479 836.674L676.459 830.066L676.214 829.53L676.712 829.553L678.452 795.527L676.673 795.435L674.979 828.549L674.458 828.457C673.799 828.342 673.147 828.25 672.496 828.165C671.185 828.004 669.867 827.889 668.548 827.82L668.456 829.599C669.729 829.668 671.001 829.775 672.274 829.928C672.91 830.005 673.538 830.097 674.159 830.204L674.604 830.281L674.834 830.787L678.291 838.353L691.69 839.395L688.716 831.668L696.734 832.236L701.816 839.541L715.72 840.943L711.382 833.408L710.83 832.45L713.398 832.588L725.831 833.27C725.862 833.347 725.969 833.393 726.038 833.454L726.36 833.677L727.809 834.673L733.052 838.276L754.039 852.687L755.02 851.2L734.071 836.812L728.836 833.217L728.82 833.225Z" fill="#28505B"/>
<path d="M599.238 634.854C604.221 627.979 624.511 602.422 629.271 595.424L633.686 597.44C628.911 604.469 611.135 633.927 606.16 640.795L599.238 634.862V634.854Z" fill="#2E100D"/>
<path d="M860.249 789.218C860.748 789.149 859.506 763.585 858.617 755.123C851.496 748.378 825.533 724.96 816.036 716.352C815.032 703.934 811.192 665.761 810.893 654.631C814.158 646.322 826.721 622.291 833.245 607.152L839.967 606.953C832.785 622.521 826.216 640.726 819.991 656.011C820.436 666.098 823.456 698.837 824.935 712.19C839.476 725.244 854.309 741.762 864.841 751.704C865.73 764.613 867.164 780.158 867.462 788.743C867.462 788.743 860.318 789.203 860.242 789.211L860.249 789.218Z" fill="#2E100D"/>
<path d="M771.931 674.614C771.931 674.614 652.406 665.531 629.9 663.737L632.545 670C654.935 671.786 763.215 681.958 763.215 681.958L753.174 849.621L665.237 845.635L664.992 850.97L760.463 858.19L771.938 674.622L771.931 674.614Z" fill="#2E100D"/>
<path d="M795.156 611.744C788.556 622.237 782.669 633.168 777.702 644.505C772.727 655.834 768.672 667.57 765.506 679.543L760.34 678.179C763.575 665.953 767.722 653.949 772.811 642.359C777.893 630.761 783.911 619.593 790.633 608.9L795.156 611.744Z" fill="#2E100D"/>
<path d="M768.142 613.545C764.984 618.481 761.949 623.464 759.143 628.553C756.338 633.643 753.77 638.856 751.447 644.183C746.794 654.845 743.092 665.96 739.665 677.167L734.553 675.618C738.017 664.297 741.773 653.006 746.549 642.052C748.933 636.579 751.577 631.206 754.46 625.978C757.342 620.742 760.446 615.66 763.635 610.67L768.134 613.545H768.142Z" fill="#2E100D"/>
<path d="M683.15 604.346C678.252 614.695 673.699 625.173 669.905 635.912C666.103 646.643 663.075 657.651 660.492 668.789L655.287 667.577C657.909 656.309 660.982 645.087 664.869 634.126C668.74 623.157 673.377 612.502 678.321 602.054L683.15 604.339V604.346Z" fill="#2E100D"/>
<path d="M661.227 600.115C656.49 610.962 651.929 621.831 648.051 632.93C644.149 644.022 640.953 655.344 638.3 666.811L633.096 665.608C635.786 653.979 639.044 642.443 643.015 631.16C646.962 619.869 651.584 608.854 656.337 597.977L661.235 600.115H661.227Z" fill="#2E100D"/>
<path d="M916.574 811.992C890.435 812.421 864.258 812.559 838.096 811.892C811.935 811.256 785.819 809.968 759.719 808.627L759.995 803.292C786.08 804.633 812.149 805.921 838.219 806.557C864.289 807.216 890.374 807.086 916.474 806.657L916.566 811.999L916.574 811.992Z" fill="#2E100D"/>
<path d="M915.954 792.414C890.076 792.621 864.206 792.131 838.358 791.211C812.519 790.291 786.702 788.988 760.908 787.67L761.184 782.335C812.772 784.979 864.336 787.539 915.916 787.079L915.954 792.422V792.414Z" fill="#2E100D"/>
<path d="M653.171 705.183L667.26 707.238L665.397 727.512L663.626 727.351L665.328 708.755L652.91 706.946L653.171 705.183Z" fill="#2E100D"/>
<path d="M678.619 707.751L723.254 710.779L718.318 756.871L674.441 753.575L677.668 708.572L679.447 708.702L676.342 751.926L716.731 754.962L721.292 712.427L678.496 709.53L678.619 707.751Z" fill="#28505B"/>
<path d="M668.273 698.951C671.333 698.951 673.815 696.47 673.815 693.409C673.815 690.349 671.333 687.867 668.273 687.867C665.212 687.867 662.73 690.349 662.73 693.409C662.73 696.47 665.212 698.951 668.273 698.951Z" fill="#2E100D"/>
<path d="M677.405 729.282L677.289 731.056L698.454 732.44L698.57 730.665L677.405 729.282Z" fill="#28505B"/>
<path d="M699.457 710.008L696.289 754.315L698.063 754.442L701.231 710.135L699.457 710.008Z" fill="#28505B"/>
<path d="M673.862 793.603C680.73 794.001 687.59 794.484 694.443 794.944L704.722 795.611L709.858 795.91L714.127 796.132L714.304 793.281L714.48 789.555L714.741 782.089C714.894 777.107 715.055 772.109 715.423 767.104L717.201 767.234C716.841 772.186 716.68 777.161 716.527 782.143L716.266 789.632L716.09 793.38L715.982 795.258L715.798 798.003L709.773 797.696L704.622 797.397L694.328 796.73C687.467 796.263 680.622 795.78 673.77 795.389L673.869 793.61L673.862 793.603Z" fill="#28505B"/>
<path d="M670.791 762.141L670.662 763.915L715.601 767.176L715.729 765.402L670.791 762.141Z" fill="#28505B"/>
<path d="M809.213 879.301C785.926 877.331 680.559 868.278 668.861 866.837L667.029 859.271C678.558 860.689 787.65 871.398 810.991 873.368L809.213 879.301Z" fill="#2E100D"/>
<path d="M729.692 1049.47L693.987 963.719C693.987 963.719 694.486 936.913 694.777 932.62C694.777 932.62 692.899 931.869 691.412 931.08C691.374 931.057 689.135 963.519 689.135 963.519L720.985 1043.93L693.459 1045.02L653.729 959.855C653.729 959.855 656.289 919.605 657.386 902.005L653.63 899.913C652.495 918.233 648.785 960.047 648.785 960.047C648.785 960.047 683.701 1039.27 688.445 1049.46C688.744 1050.25 729.692 1049.46 729.692 1049.46V1049.47Z" fill="#2E100D"/>
<path d="M938.435 1021.43L936.802 1066.68L812.034 1093.83C804.614 1090.49 739.719 1056.08 723.684 1047.47L724.496 1044.28C740.478 1052.86 811.658 1086.49 811.658 1086.49L928.47 1062.79L930.869 1023.66L938.435 1021.44V1021.43Z" fill="#2E100D"/>
<path d="M811.19 1051.06C797.837 1046.9 712.001 1017.05 711.396 1016.83L710.859 1011.9C741.091 1022.76 811.589 1044.33 811.589 1044.33C811.589 1044.33 934.103 1020.99 934.134 1020.3C934.011 1022.16 933.659 1024.96 933.544 1026.83C933.529 1026.83 820.496 1049.58 811.198 1051.06H811.19Z" fill="#2E100D"/>
<path fill-rule="evenodd" clip-rule="evenodd" d="M548.004 999.125L534.16 962.53C534.137 962.438 541.235 936.867 542.17 932.712L553.3 930.934C551.223 937.611 544.501 961.35 544.501 961.35L558.842 1001.8L548.011 999.132L548.004 999.125Z" fill="#2E100D"/>
<path d="M545.428 914.615C548.693 905.562 550.448 898.832 552.848 890.132L564.645 889.749C562.207 898.594 560.045 905.731 557.148 914.316L545.428 914.615Z" fill="#2E100D"/>
<path fill-rule="evenodd" clip-rule="evenodd" d="M631.379 1123.16L547.904 1074.99C547.904 1074.99 548.74 1046.71 549.583 1034.34C547.805 1033.94 559.671 1037.11 559.671 1037.11L558.605 1069.78C558.605 1069.78 627.424 1109.8 632.958 1112.67C631.87 1119.89 631.379 1123.16 631.379 1123.16Z" fill="#2E100D"/>
<path d="M654.428 901.108C648.595 900.02 641.136 899.46 636.23 898.832L637.066 894.003C641.757 894.601 646.594 894.907 651.446 895.382L654.436 901.108H654.428Z" fill="#2E100D"/>
<path d="M614.271 896.065L562.5 890.523L562.784 886.974L616.548 891.22L614.271 896.065Z" fill="#2E100D"/>
<path d="M873.012 903.684C849.472 909.816 845.417 909.387 821.387 915.205L826.132 908.674C850.132 902.864 851.649 903.485 874.4 897.743L873.012 903.676V903.684Z" fill="#2E100D"/>
<path d="M912.971 859.172C912.971 859.172 873.625 866.109 869.945 866.791L869.646 859.77C873.173 859.118 913.262 852.35 913.262 852.35L912.963 859.172H912.971Z" fill="#2E100D"/>
<path d="M778.798 911.794C753.372 910.368 726.574 907.938 700.021 905.117L694.832 900.373C720.158 902.58 762.018 904.887 787.406 906.305L778.798 911.794Z" fill="#2E100D"/>
<path d="M698.979 985.013L702.911 993.621C711.994 990.524 750.765 973.752 759.956 971.146C759.956 971.146 710.852 981.901 698.979 985.02V985.013Z" fill="#2E100D"/>
<path d="M666.638 994.28L661.296 982.928C643.934 974.619 620.493 963.788 603.361 956.743C605.462 959.096 648.763 984.193 666.638 994.28Z" fill="#2E100D"/>
<path fill-rule="evenodd" clip-rule="evenodd" d="M698.15 1098.24C701.799 1080.92 705.049 1063.75 708.184 1046.36L719.161 1046.66C716.003 1064.19 710.108 1082.6 706.444 1100.01L698.15 1098.25V1098.24Z" fill="#2E100D"/>
<path fill-rule="evenodd" clip-rule="evenodd" d="M915.939 1066.98C915.111 1070.12 914.306 1072.36 913.225 1075.59L909.937 1085.41C908.848 1088.7 907.798 1092.01 906.786 1095.35L906.165 1097.42L902.555 1098.65C889.562 1103.06 823.817 1124.8 823.817 1124.8L823.74 1124.82C823.74 1124.82 823.74 1124.82 823.725 1124.81L792.305 1102.49C783.306 1104.15 756.7 1108.13 756.7 1108.13C756.7 1108.13 739.713 1067.87 733.259 1050.51L723.471 1046.8C729.894 1064.07 747.701 1119.4 747.701 1119.4C747.938 1119.42 792.604 1113.47 792.604 1113.47L823.365 1135.33L908.327 1106.84C913.271 1104.97 916.238 1102.29 917.725 1097.85C917.725 1097.85 926.685 1070.11 927.613 1066.59L915.939 1066.99V1066.98Z" fill="#2E100D"/>
<path fill-rule="evenodd" clip-rule="evenodd" d="M903.765 1208.52L905.666 1103.87L891.899 1108.59C892.919 1125.95 896.935 1210.89 896.935 1210.89L927.589 1263.04L909.56 1291.3L800.583 1292.67C794.374 1292.74 788.816 1288.68 786.762 1282.58L780.101 1262.74L806.776 1229.09C806.776 1229.09 784.577 1150.94 772.995 1112.58L760.846 1113.77C773.371 1150.56 786.019 1189.16 798.045 1226.32C794.113 1231.21 767.676 1262.92 767.676 1262.92L779.802 1290.84C782.929 1298.03 789.836 1302.62 797.409 1302.52L913.814 1301.1L938.865 1263.52L903.75 1208.53L903.765 1208.52Z" fill="#2E100D"/>
<path fill-rule="evenodd" clip-rule="evenodd" d="M702.988 1160.73L707.158 1238.7C707.648 1247.93 700.91 1255.97 691.735 1257.09C658.552 1261.14 585.095 1270.05 570.945 1271.42C559.371 1268.31 510.581 1250.55 510.566 1250.2L504.932 1217.12L581.784 1177.21L582.673 1154.22L589.649 1153.92L591.871 1180.32L513.241 1221.42L520.216 1245.45C520.216 1245.45 558.941 1257.17 570.508 1259.99C583.24 1259.4 656.651 1251.6 686.285 1248.42C693.253 1247.67 698.427 1241.62 698.089 1234.63L694.517 1160.76L702.995 1160.73H702.988Z" fill="#2E100D"/>
<path d="M658.482 1154.08V1114.53C658.459 1113.47 658.275 1112.4 657.976 1111.38C657.647 1110.36 657.217 1109.37 656.62 1108.47C655.454 1106.68 653.799 1105.2 651.859 1104.3C650.894 1103.83 649.859 1103.51 648.801 1103.34C648.272 1103.24 647.743 1103.2 647.207 1103.19C646.915 1103.17 646.724 1103.17 646.517 1103.17H640.959C638.828 1103.19 636.674 1103.77 634.865 1104.92C633.953 1105.48 633.118 1106.17 632.413 1106.97C631.684 1107.75 631.079 1108.65 630.604 1109.6C630.105 1110.55 629.799 1111.59 629.584 1112.64C629.377 1113.67 629.385 1114.87 629.385 1115.58V1160.07C629.408 1161.13 629.592 1162.2 629.891 1163.22C630.22 1164.24 630.65 1165.23 631.247 1166.13C632.413 1167.92 634.068 1169.39 636.008 1170.3C636.973 1170.77 638.008 1171.09 639.066 1171.26C639.595 1171.36 640.124 1171.39 640.66 1171.41C640.952 1171.42 641.143 1171.42 641.35 1171.42H646.908C649.039 1171.41 651.193 1170.83 653.002 1169.68C653.914 1169.12 654.749 1168.43 655.454 1167.63C656.183 1166.85 656.788 1165.95 657.263 1164.99C657.762 1164.04 658.068 1163.01 658.283 1161.96C658.49 1160.93 658.482 1159.73 658.482 1159.01V1154.08ZM653.14 1154.08V1159.01C653.14 1159.94 653.14 1160.4 653.032 1160.98C652.91 1161.54 652.756 1162.1 652.488 1162.61C651.469 1164.69 649.23 1166.09 646.915 1166.07H641.358C641.151 1166.07 640.929 1166.07 640.814 1166.07C640.522 1166.06 640.239 1166.04 639.955 1165.98C639.388 1165.9 638.836 1165.72 638.315 1165.47C636.222 1164.5 634.758 1162.28 634.758 1159.96V1140.26L634.751 1120.51V1115.58C634.751 1114.65 634.75 1114.19 634.858 1113.61C634.98 1113.05 635.134 1112.49 635.402 1111.98C636.422 1109.9 638.66 1108.5 640.975 1108.52H646.532C646.739 1108.52 646.961 1108.52 647.076 1108.52C647.368 1108.53 647.651 1108.55 647.935 1108.61C648.502 1108.69 649.054 1108.87 649.575 1109.12C651.668 1110.09 653.132 1112.31 653.132 1114.63V1134.33L653.14 1154.08Z" fill="#2E100D"/>
<path d="M712.844 1102.99C711.924 1101.15 710.506 1099.59 708.843 1098.39C707.172 1097.19 705.187 1096.45 703.155 1096.17C702.649 1096.08 702.136 1096.1 701.622 1096.06H700.38H697.943C695.896 1096.07 693.834 1096.57 692.018 1097.52C690.193 1098.47 688.63 1099.89 687.449 1101.57C686.276 1103.26 685.54 1105.24 685.287 1107.28C685.218 1107.79 685.219 1108.3 685.188 1108.81V1110.03V1112.47V1151.46C685.173 1153.46 685.671 1155.55 686.606 1157.37C687.526 1159.21 688.944 1160.78 690.607 1161.97C692.278 1163.17 694.264 1163.91 696.295 1164.19C696.801 1164.28 697.314 1164.27 697.828 1164.3H699.07H701.507C703.554 1164.3 705.616 1163.79 707.433 1162.84C709.257 1161.89 710.821 1160.47 712.001 1158.79C713.174 1157.11 713.91 1155.12 714.163 1153.08C714.232 1152.58 714.232 1152.06 714.262 1151.55V1150.33V1147.89V1108.91C714.278 1106.91 713.779 1104.81 712.844 1102.99ZM708.92 1128.4V1151.55C708.889 1151.85 708.904 1152.15 708.858 1152.45C708.705 1153.63 708.291 1154.78 707.601 1155.76C706.911 1156.73 705.999 1157.57 704.941 1158.11C703.883 1158.65 702.703 1158.95 701.5 1158.96H697.866C697.567 1158.92 697.261 1158.95 696.969 1158.89C695.789 1158.72 694.639 1158.31 693.673 1157.6C692.707 1156.91 691.872 1155.99 691.343 1154.93C690.806 1153.86 690.515 1152.71 690.523 1151.46V1108.81C690.554 1108.52 690.538 1108.22 690.584 1107.92C690.738 1106.74 691.151 1105.59 691.841 1104.61C692.531 1103.63 693.443 1102.8 694.501 1102.25C695.559 1101.71 696.739 1101.41 697.943 1101.4H701.576C701.875 1101.44 702.182 1101.41 702.473 1101.47C703.654 1101.64 704.803 1102.05 705.769 1102.76C706.735 1103.46 707.57 1104.37 708.099 1105.43C708.636 1106.51 708.927 1107.66 708.92 1108.91V1128.4Z" fill="#2E100D"/>
<path d="M599.138 1142.27V1100.64C599.122 1098.57 598.593 1096.47 597.574 1094.66C596.539 1092.85 595.083 1091.28 593.297 1090.2C592.423 1089.63 591.449 1089.23 590.461 1088.89C589.456 1088.62 588.429 1088.39 587.387 1088.37C586.82 1088.34 586.452 1088.35 586.038 1088.35H582.366C580.289 1088.36 578.196 1088.89 576.379 1089.9C574.57 1090.93 572.991 1092.39 571.911 1094.17C571.336 1095.05 570.945 1096.02 570.607 1097.01C570.331 1098.01 570.109 1099.04 570.079 1100.08C570.048 1100.65 570.056 1101.02 570.056 1101.43V1144.29C570.071 1146.37 570.6 1148.46 571.619 1150.28C572.654 1152.09 574.111 1153.66 575.897 1154.74C576.77 1155.3 577.744 1155.7 578.733 1156.04C579.737 1156.32 580.764 1156.54 581.806 1156.56C582.374 1156.59 582.742 1156.58 583.156 1156.58H586.827C588.905 1156.57 590.997 1156.04 592.814 1155.03C594.623 1154 596.202 1152.55 597.283 1150.76C597.858 1149.89 598.249 1148.91 598.586 1147.92C598.862 1146.92 599.084 1145.89 599.115 1144.85C599.145 1144.28 599.138 1143.91 599.138 1143.5V1142.27ZM593.78 1144.6C593.78 1145.19 593.634 1145.77 593.488 1146.34C593.289 1146.89 593.082 1147.45 592.745 1147.94C592.139 1148.96 591.227 1149.77 590.215 1150.36C589.18 1150.94 588.015 1151.23 586.827 1151.24H583.156C582.749 1151.24 582.305 1151.24 582.052 1151.22C581.454 1151.22 580.879 1151.07 580.312 1150.93C579.76 1150.73 579.2 1150.52 578.71 1150.18C577.69 1149.58 576.87 1148.67 576.28 1147.65C575.705 1146.62 575.414 1145.45 575.398 1144.27V1124.68V1105.09V1101.42C575.398 1101.01 575.398 1100.57 575.421 1100.31C575.421 1099.72 575.567 1099.14 575.713 1098.57C575.912 1098.02 576.119 1097.46 576.456 1096.97C577.062 1095.95 577.974 1095.14 578.986 1094.55C580.02 1093.97 581.186 1093.68 582.374 1093.67H586.045C586.452 1093.67 586.896 1093.67 587.149 1093.69C587.747 1093.69 588.322 1093.84 588.889 1093.98C589.441 1094.18 590.001 1094.39 590.491 1094.73C591.511 1095.33 592.331 1096.24 592.921 1097.26C593.496 1098.29 593.787 1099.46 593.803 1100.64V1120.23V1139.82V1143.49C593.803 1143.9 593.803 1144.34 593.78 1144.6Z" fill="#2E100D"/>
<path d="M688.002 1111.64C677.592 1115.31 667.827 1117.57 657.578 1121.06L656.26 1114.3C667.39 1110.74 677.347 1107.34 687.419 1103.77L688.009 1111.64H688.002Z" fill="#2E100D"/>
<path fill-rule="evenodd" clip-rule="evenodd" d="M916.558 792.461L892.198 749.78L876.369 701.711L924.561 789.77L916.558 792.461Z" fill="#2E100D"/>
<path fill-rule="evenodd" clip-rule="evenodd" d="M1031.22 797.098C1031.22 797.098 1031.21 797.098 1031.2 797.098C1028.17 808.435 997.029 928.205 990.107 949.967C986.152 962.4 984.818 967.406 977.053 973.308C967.165 980.828 932.472 999.891 917.118 1008.12C909.706 1002.64 875.772 975.684 859.751 961.243C864.895 954.398 876.116 941.528 876.17 941.459L880.424 903.485C880.424 903.485 880.271 901.852 880.279 901.844L921.073 879.891C921.081 879.477 922.852 812.774 922.79 790.805C920.046 790.675 914.934 789.969 912.182 789.839C912.182 789.839 912.174 789.839 912.174 789.847C911.875 821.182 913.5 875.483 913.508 875.882L870.191 895.904C870.191 905.846 868.558 927.799 868.114 937.442C861.437 944.563 855.65 952.573 847.602 961.772C868.497 983.158 917.08 1018.58 917.118 1018.59C917.118 1018.59 968.307 989.474 982.197 980.222C986.941 977.056 989.41 974.435 993.871 963.604C998.025 953.516 1033.14 824.724 1039.96 798.623C1039.96 798.623 1041.83 798.424 1041.82 798.424L1031.22 797.075V797.098Z" fill="#2E100D"/>
<path d="M919.448 787.47L991.548 820.7C991.548 820.7 1024.33 801.115 1032.5 794.883L1035.46 802.303C1028.45 807.063 991.694 829.453 991.694 829.453L919.295 797.704L919.441 787.47H919.448Z" fill="#2E100D"/>
<path fill-rule="evenodd" clip-rule="evenodd" d="M993.18 633.022C979.383 621.747 938.879 590.143 938.879 590.143C938.879 590.143 919.701 587.421 908.809 585.398L902.5 591.346C913.116 593.324 934.119 598.421 934.119 598.421C934.119 598.421 972.285 630.477 984.25 642.397L1031.81 740.628C1031.81 740.628 1026.44 791.096 1025.18 801.766C1025.18 801.766 1029.97 801.414 1033.83 802.157C1035.12 791.288 1041.54 734.802 1041.54 734.802L993.173 633.03L993.18 633.022Z" fill="#2E100D"/>
<path d="M983.984 654.24L920.484 685.491L954.71 785.983L1022.56 748.991C1022.56 748.991 984.007 654.232 983.991 654.24H983.984ZM958.32 775.888C958.32 775.888 936.957 714.022 927.46 687.17C939.103 682.326 980.956 661.284 980.956 661.284L1014.75 746.308L1014.64 746.369L958.32 775.896V775.888Z" fill="#2E100D"/>
<path d="M937.77 677.941C935.432 671.824 932.864 665.684 930.802 660.042C929.737 657.199 929.031 654.362 927.598 652.339C927.245 651.841 926.839 651.365 926.441 651.028C926.019 650.668 925.536 650.369 925.023 650.154C924.003 649.71 922.884 649.625 922.087 649.955C921.696 650.101 921.343 650.384 921.06 650.729C920.784 651.066 920.584 651.48 920.462 651.979C920.239 652.998 920.339 654.27 920.646 655.551C920.791 656.194 920.991 656.838 921.213 657.49C921.32 657.812 921.451 658.134 921.566 658.463L921.964 659.491L923.574 663.599L930.856 681.237L927.537 682.532L920.255 664.895L918.645 660.786L918.246 659.759C918.108 659.391 917.97 659.031 917.84 658.655C917.58 657.911 917.35 657.153 917.173 656.355C916.813 654.776 916.591 653.052 916.989 651.181C917.204 650.246 917.633 649.288 918.285 648.491C918.929 647.701 919.772 647.042 920.753 646.659C922.723 645.885 924.754 646.184 926.41 646.889C927.253 647.249 928.027 647.732 928.733 648.322C929.453 648.935 930.005 649.602 930.503 650.3C931.484 651.703 932.128 653.213 932.665 654.654L934.129 658.824C936.107 664.251 938.789 670.007 941.311 676.017L937.747 677.949L937.77 677.941Z" fill="#2E100D"/>
<path d="M957.752 667.723L950.493 649.326L948.807 645.133C948.247 643.792 947.642 642.543 946.867 641.538C946.093 640.511 945.212 639.837 944.131 639.469C943.602 639.3 943.065 639.223 942.575 639.254C942.084 639.292 941.663 639.438 941.31 639.668C940.597 640.128 940.076 641.124 939.938 642.259C939.792 643.355 940.045 644.651 940.475 645.961C940.912 647.28 941.509 648.728 942.038 650.139L943.663 654.385L950.263 671.663L947.113 673.035L940.337 655.658L938.712 651.411C938.175 649.978 937.615 648.629 937.094 647.065C936.596 645.509 936.174 643.754 936.404 641.822C936.527 640.879 936.78 639.936 937.255 639.047C937.715 638.158 938.42 637.315 939.325 636.709C940.229 636.104 941.302 635.774 942.322 635.705C943.349 635.644 944.338 635.797 945.25 636.096C946.162 636.395 947.005 636.847 947.764 637.422C948.546 638.012 949.144 638.672 949.696 639.377C950.777 640.787 951.474 642.313 952.087 643.761L953.797 648.008L961.056 666.405L957.752 667.723Z" fill="#2E100D"/>
<path d="M977.551 659.697L970.584 643.179L968.844 639.047C968.269 637.675 967.701 636.372 967.019 635.222C966.345 634.08 965.532 633.107 964.589 632.486C963.746 631.918 962.55 631.642 961.531 631.78C961.017 631.849 960.565 632.01 960.22 632.248C959.875 632.486 959.638 632.769 959.477 633.168C959.132 633.927 959.254 635.123 959.622 636.403C959.998 637.667 960.573 639.132 961.063 640.527L962.581 644.743L969.296 662.626L965.946 663.829L959.231 645.946L957.714 641.73C957.215 640.304 956.686 638.986 956.203 637.384C955.981 636.587 955.782 635.736 955.728 634.793C955.675 633.858 955.774 632.815 956.18 631.819C956.564 630.838 957.315 629.902 958.212 629.305C959.109 628.699 960.105 628.377 961.071 628.247C963.01 628.017 964.919 628.446 966.567 629.519C968.115 630.562 969.234 631.98 970.078 633.398C970.921 634.824 971.534 636.28 972.124 637.66L973.864 641.791L980.832 658.31L977.551 659.697Z" fill="#2E100D"/>
<path d="M1000.82 817.074L998.547 801.536L997.413 793.764L996.838 789.816L996.554 787.861L996.485 787.378C996.439 787.279 996.554 787.263 996.623 787.225L996.845 787.126L997.735 786.719L1000.11 785.638C1009.68 781.315 1019.28 777.076 1029 773.067L1030.36 776.363C1020.7 780.349 1011.12 784.573 1001.58 788.889C999.866 789.663 1000.5 789.387 1000.38 789.425L1000.94 793.258L1002.07 801.046L1004.34 816.629L1000.81 817.089L1000.82 817.074Z" fill="#2E100D"/>
<path d="M747.202 647.51L666.693 639.239L667.238 633.245L750.368 638.61L747.202 647.51Z" fill="#2E100D"/>
<path d="M872.269 871.881L868.858 811.302L861.699 811.516L864.405 867.734L842.597 875.299L840.52 882.121L872.269 871.881Z" fill="#2E100D"/>
<path d="M899.111 918.861L906.838 926.235L884.877 952.665L899.111 918.861Z" fill="#2E100D"/>
<path d="M694.234 899.184L696.189 867.052L700.466 867.58L697.201 900.664L694.234 899.184Z" fill="#2E100D"/>
<path d="M928.492 1024.55L935.322 1002L944.076 1000.21L937.1 1023.21L928.492 1024.55Z" fill="#2E100D"/>
<path d="M687.258 1038.39C670.249 1044.23 635.249 1055.73 635.249 1055.73C635.249 1055.73 541.272 1029 537.417 1027.91C536.627 1021.05 533.446 996.925 533.446 996.925C542.966 999.753 632.857 1027.41 632.857 1027.41C632.857 1027.41 660.483 1017.28 673.43 1013.03L672.303 1009.65L633.547 1022.27L534.297 993.138C539.371 990.57 542.307 989.229 547.504 986.508L544.936 982.598C537.815 985.864 533.96 987.443 525.551 991.107C525.551 991.107 531.054 1024.58 531.982 1032.25C541.303 1034.73 635.931 1063.21 635.931 1063.21C635.931 1063.21 671.935 1048.67 688.791 1041.48C688.791 1041.48 687.404 1038.72 687.266 1038.39L687.258 1038.39Z" fill="#2E100D"/>
<path d="M652.596 901.423C655.056 896.785 658.36 892.7 662.223 889.227C666.094 885.778 670.578 882.888 675.668 881.263L676.726 884.659C672.28 886.069 668.164 888.691 664.592 891.872C661.035 895.068 657.961 898.878 655.746 903.071L652.596 901.415V901.423Z" fill="#595959"/>
<path d="M667.029 916.631C669.39 912.353 672.349 908.513 675.607 904.987C678.88 901.469 682.475 898.257 686.438 895.474L688.477 898.395C684.767 901.001 681.325 904.067 678.221 907.409C675.124 910.759 672.326 914.408 670.157 918.348L667.037 916.638L667.029 916.631Z" fill="#595959"/>
<path d="M685.473 929.025C688.592 925.921 691.314 922.272 693.858 918.524C696.396 914.76 698.741 910.843 700.972 906.857L704.076 908.597C701.807 912.652 699.416 916.638 696.81 920.517C694.18 924.38 691.383 928.167 687.972 931.563L685.473 929.025Z" fill="#595959"/>
<path d="M801.853 930.168C800.443 926.013 797.852 922.104 794.954 918.547C792.026 914.99 788.684 911.725 785.043 908.965L787.182 906.122C791.106 909.096 794.602 912.522 797.706 916.293C799.254 918.187 800.703 920.172 801.999 922.28C803.286 924.396 804.429 926.626 805.241 929.064L801.861 930.168H801.853Z" fill="#595959"/>
<path d="M821.57 912.315C821.026 910.154 819.907 908.099 818.45 906.283C816.994 904.466 815.2 902.871 813.23 901.545C809.283 898.901 804.592 897.222 799.9 897.054L800.015 893.497C805.496 893.704 810.739 895.597 815.216 898.594C817.454 900.104 819.508 901.913 821.233 904.06C822.95 906.198 824.337 908.697 825.035 911.472L821.578 912.315H821.57Z" fill="#595959"/>
<path d="M834.982 893.443C833.61 891.895 831.387 890.645 829.118 889.687C826.819 888.721 824.381 887.978 821.905 887.38C819.429 886.79 816.9 886.345 814.37 886.092C811.848 885.839 809.296 885.74 806.874 885.977L806.498 882.436C809.311 882.16 812.04 882.283 814.738 882.551C817.436 882.827 820.096 883.294 822.733 883.923C825.362 884.551 827.969 885.341 830.513 886.414C831.15 886.698 831.786 886.943 832.407 887.288C833.035 887.61 833.656 887.916 834.262 888.323L835.174 888.898L836.055 889.58C836.653 889.994 837.182 890.638 837.734 891.19L834.982 893.451V893.443Z" fill="#595959"/>
<path d="M842.457 870.133C840.41 869.037 838.073 868.247 835.689 867.634C833.297 867.021 830.837 866.584 828.361 866.262C823.409 865.641 818.334 865.449 813.444 865.925L813.068 862.383C818.373 861.87 823.608 862.077 828.813 862.728C831.411 863.065 834.002 863.525 836.578 864.185C839.146 864.851 841.706 865.687 844.174 867.021L842.449 870.141L842.457 870.133Z" fill="#595959"/>
<path d="M708.438 940.385C710.852 936.484 712.791 932.184 714.324 927.799C715.812 923.414 716.961 918.831 717.015 914.385H720.579C720.564 916.953 720.204 919.436 719.69 921.858C719.177 924.281 718.494 926.642 717.697 928.964C716.08 933.594 714.071 938.055 711.458 942.279L708.438 940.385Z" fill="#595959"/>
<path d="M730.068 945.789C731.931 941.558 733.303 937.066 734.223 932.505C735.12 927.952 735.587 923.276 735.212 918.754L738.761 918.447C739.167 923.46 738.661 928.397 737.718 933.211C736.745 938.017 735.311 942.723 733.326 947.246L730.068 945.797V945.789Z" fill="#595959"/>
<path d="M753.769 945.728C755.18 941.673 755.708 937.281 755.616 932.904C755.517 928.52 754.819 924.12 753.646 919.866L757.081 918.915C758.33 923.438 759.073 928.106 759.181 932.828C759.28 937.542 758.721 942.34 757.134 946.901L753.769 945.728Z" fill="#595959"/>
<path d="M777.409 940.853C777.723 936.254 776.673 931.555 774.834 927.201C772.986 922.847 770.357 918.777 767.184 915.259L769.82 912.867C773.27 916.7 776.091 921.061 778.114 925.821C780.115 930.566 781.318 935.786 780.958 941.106L777.409 940.861V940.853Z" fill="#595959"/>
<path d="M846.452 876.189C848.246 874.694 849.641 873.636 850.905 871.658C852.155 869.681 853.128 867.519 853.711 865.25C854.294 862.981 854.531 860.628 854.409 858.282C854.271 855.937 853.749 853.63 852.929 851.437C852.147 849.222 850.883 847.206 849.449 845.359C848.023 843.488 846.222 841.917 844.298 840.568C842.382 839.188 840.212 838.184 837.989 837.41C835.767 836.605 833.398 836.26 831.045 836.091L829.266 836.053C828.676 836.053 828.086 836.13 827.496 836.16C826.308 836.191 825.15 836.49 823.977 836.659C821.678 837.234 819.416 837.969 817.331 839.104C813.154 841.319 809.597 844.7 807.275 848.793C806.155 850.855 805.228 853.039 804.76 855.339C804.592 855.906 804.576 856.496 804.469 857.071L804.339 857.938C804.3 858.229 804.316 858.52 804.293 858.811C804.277 859.394 804.232 859.984 804.239 860.567L804.362 862.322C804.53 864.599 805.297 866.806 806.332 868.937C807.374 871.061 808.716 873.084 810.233 874.947L807.474 877.2C805.803 875.146 804.324 872.923 803.135 870.509C801.963 868.109 801.035 865.45 800.82 862.675L800.682 860.643C800.675 859.969 800.721 859.287 800.736 858.612C800.751 858.275 800.751 857.93 800.79 857.6L800.935 856.596C801.05 855.929 801.089 855.247 801.273 854.588C801.817 851.92 802.875 849.398 804.17 847.03C806.845 842.323 810.9 838.468 815.66 835.953C818.029 834.666 820.605 833.815 823.211 833.179C824.537 832.972 825.848 832.65 827.197 832.611C827.864 832.573 828.538 832.489 829.205 832.489L831.221 832.535C833.896 832.711 836.587 833.117 839.124 834.029C841.661 834.903 844.129 836.053 846.329 837.632C848.529 839.181 850.584 840.982 852.239 843.136C853.895 845.267 855.344 847.597 856.264 850.165C857.214 852.702 857.82 855.377 857.973 858.083C858.111 860.789 857.843 863.518 857.168 866.147C856.494 868.776 855.359 871.283 853.918 873.575C852.454 875.859 852.715 875.483 850.622 877.216L846.467 876.181L846.452 876.189Z" fill="#2E100D"/>
<path d="M846.575 860.344C846.575 858.497 846.253 856.642 845.617 854.91C844.858 852.817 843.662 850.908 842.152 849.299C839.148 846.064 834.901 844.063 830.539 843.741C828.363 843.573 826.132 843.787 824.016 844.446C821.901 845.098 819.915 846.179 818.229 847.612C816.535 849.046 815.14 850.824 814.151 852.802C813.162 854.787 812.587 856.964 812.434 859.156C812.434 859.156 811.606 867.435 810.479 871.436C809.337 875.529 807.705 879.469 805.742 883.218C801.787 890.707 796.214 897.337 789.476 902.503C776.016 912.89 758.539 917.826 741.568 916.792C737.306 916.531 733.137 915.849 728.959 914.822C724.797 913.817 720.696 912.537 716.694 911.004C708.7 907.93 701.103 903.799 694.312 898.609C687.528 893.428 681.511 887.211 676.889 880.067C672.251 872.946 668.986 864.936 667.399 856.588L663.904 857.255C665.567 866.063 669.016 874.517 673.907 882.014C678.774 889.534 685.083 896.042 692.15 901.446C699.233 906.857 707.121 911.142 715.414 914.331C719.561 915.925 723.808 917.252 728.123 918.294C732.416 919.352 736.893 920.088 741.346 920.356C750.268 920.916 759.268 919.873 767.837 917.359C776.399 914.845 784.563 910.82 791.661 905.332C798.774 899.874 804.7 892.838 808.885 884.896C810.97 880.926 812.695 876.756 813.898 872.432C815.117 868.117 816.006 859.233 816.006 859.233C816.274 855.806 817.915 852.533 820.536 850.341C823.181 848.08 826.745 847.014 830.263 847.306C833.79 847.559 837.569 848.862 839.554 851.736C845.908 860.927 839.508 881.96 834.893 891.381C830.126 901.124 823.556 909.977 815.776 917.55C800.231 932.751 779.565 942.647 757.957 945.077C736.341 947.399 714.042 943.053 694.726 932.981C675.401 922.901 659.251 904.136 648.105 885.41L644.541 888.522C656.039 907.839 673.171 925.745 693.085 936.139C713.007 946.518 735.973 951.017 758.363 948.61C780.753 946.088 802.155 935.832 818.252 920.095C826.316 912.254 833.123 903.071 838.09 892.937C843.049 882.819 846.146 871.697 846.644 860.36H846.575V860.344Z" fill="#2E100D"/>
<path fill-rule="evenodd" clip-rule="evenodd" d="M627.455 593.163C619.176 598.39 610.821 603.519 602.451 608.555C594.072 613.591 585.756 618.581 577.577 623.793L573.031 616.634C581.31 611.36 589.734 606.309 598.081 601.288C606.437 596.267 614.707 591.185 622.94 585.988L627.47 593.155L627.455 593.163Z" fill="#2E100D"/>
<path d="M421.572 798.486C420.576 801.628 419.48 804.694 418.476 807.722C417.97 809.24 417.494 810.75 417.058 812.26L416.858 812.965L422.945 812.191C426.256 811.785 429.537 811.348 432.817 810.85L433.615 816.131C430.28 816.629 426.938 817.074 423.611 817.488L418.652 818.109L414.773 818.645L409.783 819.381L410.879 814.736L411.477 812.406L411.631 811.823L411.761 811.379L411.929 810.781C412.389 809.186 412.895 807.607 413.409 806.051C414.444 802.939 415.525 799.904 416.483 796.876L421.572 798.486Z" fill="#3D3939"/>
<path d="M393.233 774.838C393.302 777.873 393.394 780.901 393.54 783.921C393.609 785.431 393.701 786.941 393.793 788.451L393.839 789.141L394.843 788.681L399.289 786.612C402.225 785.217 405.084 783.753 407.905 782.166L410.511 786.826C407.59 788.459 404.593 790 401.581 791.433L389.109 797.221L388.741 792.675L388.458 788.796C388.358 787.256 388.266 785.715 388.197 784.174C388.052 781.093 387.952 778.019 387.891 774.945L393.233 774.83V774.838Z" fill="#3D3939"/>
<path d="M557.493 912.951C557.754 911.794 558.053 910.629 558.559 909.463C559.018 908.298 559.716 907.141 560.582 906.106C561.441 905.056 562.552 904.174 563.71 903.538C564.867 902.887 566.078 902.434 567.251 902.143C569.612 901.538 571.843 901.407 574.012 901.3C576.173 901.223 578.274 901.223 580.343 901.208C584.483 901.177 588.522 901.062 592.5 900.541C594.486 900.28 596.456 899.936 598.395 899.499C600.296 899.054 602.159 898.471 603.975 897.759C607.609 896.333 610.959 894.309 614.216 891.91C615.857 890.722 617.466 889.419 619.321 888.146C620.249 887.51 621.268 886.874 622.495 886.345C623.706 885.824 625.254 885.425 626.879 885.617C628.504 885.793 629.915 886.514 630.98 887.295C631.555 887.679 631.992 888.116 632.467 888.537C632.881 888.974 633.341 889.403 633.701 889.848L634.269 890.515C634.453 890.745 634.637 891.013 634.813 891.258C635.173 891.764 635.541 892.263 635.825 892.814C636.124 893.359 636.438 893.895 636.653 894.486C636.89 895.06 637.143 895.628 637.289 896.233C638.009 898.609 638.17 901.078 637.956 903.423C637.741 905.776 637.189 908.045 636.4 910.169C634.828 914.438 632.483 918.248 629.754 921.697C627.017 925.139 623.867 928.213 620.418 930.903C618.685 932.245 616.868 933.479 614.99 934.613C613.089 935.725 611.12 936.729 609.073 937.595C607.019 938.438 604.88 939.136 602.688 939.649C600.526 940.132 598.341 940.454 596.149 940.654C591.765 941.014 587.342 940.838 583.003 940.071C578.665 939.32 574.395 937.986 570.401 935.924C566.431 933.862 562.644 930.972 560.023 926.917C558.72 924.901 557.784 922.586 557.363 920.172C556.934 917.757 557.018 915.281 557.493 912.951L562.728 914.024C562 917.535 562.591 921.069 564.53 924.043C566.446 927.032 569.474 929.439 572.87 931.187C576.281 932.95 580.052 934.146 583.931 934.813C587.802 935.503 591.78 935.656 595.697 935.334C597.652 935.158 599.599 934.874 601.507 934.445C603.378 934.008 605.21 933.402 607.011 932.674C608.805 931.915 610.552 931.018 612.246 930.029C613.925 929.01 615.565 927.899 617.129 926.687C620.249 924.25 623.1 921.46 625.553 918.378C627.998 915.297 630.053 911.909 631.364 908.344C632.674 904.803 633.134 901.016 632.153 897.774C632.061 897.352 631.877 896.977 631.724 896.586C631.586 896.187 631.364 895.827 631.164 895.459C630.988 895.076 630.72 894.746 630.474 894.401C630.344 894.233 630.244 894.056 630.099 893.88L629.654 893.359C628.481 891.948 627.132 890.982 626.251 890.921C625.799 890.867 625.254 890.967 624.557 891.258C623.867 891.557 623.1 892.01 622.311 892.554C620.732 893.642 619.084 894.953 617.351 896.218C613.902 898.763 610.069 901.101 605.93 902.718C603.868 903.531 601.737 904.197 599.583 904.696C597.46 905.179 595.314 905.554 593.167 905.83C588.875 906.397 584.567 906.512 580.374 906.543C578.281 906.558 576.204 906.558 574.203 906.635C572.218 906.719 570.256 906.865 568.577 907.31C567.726 907.517 566.975 907.815 566.316 908.183C565.657 908.551 565.097 908.988 564.637 909.555C563.694 910.644 563.081 912.246 562.705 914.017L557.47 912.944L557.493 912.951Z" fill="#2E100D"/>
<path d="M653.139 841.963C650.089 843.81 639.143 849.582 635.762 851.537L633.953 846.171C640.185 842.661 644.539 840.629 650.932 837.088L653.139 841.963Z" fill="#2E100D"/>
<path d="M637.373 844.592L639.941 850.517C640.662 852.181 640.593 854.189 639.819 855.791C639.435 856.596 638.899 857.317 638.247 857.907C637.925 858.206 637.573 858.466 637.197 858.681C637.013 858.796 636.821 858.903 636.63 858.988L636.339 859.126L636.132 859.21L624.304 864.039L612.477 868.868L609.518 870.079L608.782 870.378L607.87 870.716C607.571 870.838 607.233 870.907 606.919 870.999C606.605 871.091 606.268 871.16 605.93 871.214C604.597 871.451 603.14 871.474 601.699 871.145C600.266 870.823 598.863 870.133 597.721 869.152C595.429 867.167 594.271 864.131 594.501 861.226C594.601 859.77 595.038 858.344 595.728 857.094C596.418 855.837 597.353 854.756 598.403 853.898C599.438 853.032 600.626 852.365 601.745 851.859C602.757 851.414 603.746 850.985 604.742 850.571C606.728 849.743 608.713 848.946 610.698 848.149L622.618 843.473L628.574 841.166L628.819 841.074L629.126 840.974C629.325 840.905 629.539 840.859 629.746 840.813C630.168 840.721 630.597 840.675 631.027 840.66C631.885 840.637 632.751 840.775 633.571 841.066C635.204 841.641 636.661 842.921 637.396 844.577L632.529 846.777C632.276 846.187 631.402 845.765 630.505 846.148L624.549 848.456L612.676 853.108C610.706 853.898 608.744 854.687 606.797 855.492C605.823 855.899 604.857 856.305 603.922 856.726C603.102 857.102 602.427 857.493 601.822 857.991C600.626 858.965 599.928 860.26 599.836 861.602C599.721 862.943 600.281 864.284 601.216 865.105C602.167 865.909 603.485 866.224 605.003 865.948C605.378 865.894 605.769 865.771 606.153 865.649L606.743 865.434L607.479 865.135L610.438 863.932L622.265 859.103L634.093 854.274C634.146 854.251 634.238 854.212 634.254 854.205L634.323 854.166C634.369 854.151 634.415 854.12 634.453 854.097C634.537 854.051 634.614 853.99 634.683 853.929C634.821 853.806 634.928 853.653 635.005 853.499C635.15 853.177 635.158 852.878 635.035 852.579L632.521 846.777L637.389 844.577L637.373 844.592Z" fill="#2E100D"/>
<path d="M488.238 917.504L560.737 911.05L561.426 916.347L487.518 925.699L488.238 917.504Z" fill="#2E100D"/>
<path d="M475.252 938.124C489.801 937.128 548.694 928.88 563.158 926.703L568.348 933.602C553.875 935.779 487.417 942.946 471.619 944.655L475.252 938.124Z" fill="#2E100D"/>
<path d="M632.666 897.061C635.579 893.673 638.407 890.231 641.037 886.675C643.673 883.118 646.096 879.431 648.372 875.614L652.956 878.358C650.61 882.29 648.073 886.153 645.329 889.856C642.593 893.558 639.68 897.099 636.713 900.556L632.666 897.069V897.061Z" fill="#2E100D"/>
<path d="M625.814 887.671C633.012 877.469 639.735 866.822 646.426 856.175L650.949 859.011C644.234 869.696 637.496 880.366 630.168 890.76L625.814 887.671Z" fill="#2E100D"/>
<path d="M621.858 911.035C621.62 909.195 620.9 907.348 619.459 905.892C618.738 905.179 617.834 904.558 616.753 904.259C615.68 903.945 614.461 903.983 613.403 904.358L596.064 910.514L595.52 910.705L595.252 910.805L595.114 910.851L594.922 910.928C594.408 911.135 593.918 911.403 593.504 911.74C592.653 912.392 592.017 913.22 591.557 914.086C590.645 915.826 590.384 917.75 590.614 919.605C590.852 921.444 591.572 923.292 593.013 924.748C593.734 925.461 594.638 926.082 595.719 926.381C596.792 926.695 598.011 926.657 599.069 926.281L616.408 920.126L616.952 919.934L617.22 919.835L617.358 919.789L617.55 919.712C618.063 919.505 618.554 919.237 618.968 918.9C619.819 918.248 620.455 917.42 620.915 916.554C621.827 914.814 622.088 912.89 621.858 911.035ZM617.765 914.891C617.504 915.381 617.174 915.787 616.806 916.063C616.63 916.217 616.431 916.309 616.239 916.393L616.162 916.424L616.024 916.47L615.756 916.569L615.212 916.761L597.873 922.916C597.474 923.046 597.099 923.054 596.693 922.947C596.294 922.839 595.88 922.571 595.52 922.211C594.784 921.483 594.286 920.341 594.14 919.153C593.987 917.972 594.178 916.715 594.7 915.734C594.96 915.243 595.29 914.837 595.658 914.561C595.834 914.408 596.033 914.316 596.225 914.231L596.302 914.201L596.44 914.155L596.708 914.055L597.252 913.863L614.591 907.708C614.99 907.578 615.365 907.57 615.772 907.678C616.17 907.785 616.584 908.053 616.944 908.413C617.68 909.142 618.178 910.284 618.324 911.472C618.477 912.652 618.286 913.909 617.765 914.891Z" fill="#7F6F6F"/>
<path d="M460.849 837.18C458.465 831.799 455.997 826.456 453.252 821.244C449.312 813.739 444.882 806.488 439.884 799.643C433.959 791.525 427.275 783.952 419.701 777.337C411.362 770.063 402.01 763.938 391.838 759.561C380.202 754.548 367.761 751.804 355.106 751.229C353.389 751.152 351.672 751.114 349.962 751.114C347.494 751.114 347.494 754.947 349.962 754.947C362.541 754.962 375.036 757.085 386.787 761.608C396.728 765.433 406.341 771.22 414.489 777.927C418.452 781.193 422.193 784.719 425.703 788.459C427.397 790.261 429.038 792.108 430.632 793.994C432.142 795.787 433.698 797.742 434.94 799.375C440.099 806.174 444.667 813.417 448.738 820.914C451.696 826.372 454.371 831.983 456.893 837.655C456.955 837.801 457.024 837.946 457.085 838.084C447.664 841.204 438.244 844.324 428.823 847.444C426.347 848.264 423.864 849.084 421.388 849.904C420.882 850.073 420.376 850.257 419.855 850.395C419.663 850.448 419.356 850.54 419.134 850.51C418.69 850.165 418.46 849.214 418.23 848.716C417.095 846.294 415.761 843.971 414.343 841.71C410.687 835.907 406.402 830.465 401.757 825.421C396.721 819.941 391.171 814.881 385.062 810.612C378.922 806.327 371.916 802.663 364.419 801.613C363.392 801.467 362.365 801.858 362.058 802.954C361.813 803.851 362.365 805.17 363.4 805.315C370.007 806.235 376.078 809.225 381.59 812.873C387.745 816.951 393.271 821.949 398.308 827.33C402.922 832.259 407.161 837.571 410.794 843.266C412.281 845.596 413.669 847.988 414.849 850.487C415.7 852.288 416.536 854.074 418.782 854.304C419.855 854.411 420.859 854.112 421.871 853.775C423.204 853.338 424.531 852.894 425.864 852.457C436.987 848.77 448.117 845.09 459.239 841.403C460.189 841.089 460.58 840.284 460.557 839.495C461.171 838.889 461.217 837.977 460.864 837.172L460.849 837.18Z" fill="#2E100D"/>
<path d="M391.548 893.474C384.803 886.008 378.05 878.542 371.35 871.03C372.094 869.826 372.753 868.577 373.328 867.289C373.612 866.599 373.865 865.902 374.087 865.189C375.436 866.737 376.785 868.286 378.134 869.842C380.625 872.724 383.101 875.614 385.554 878.527C386.221 879.316 387.333 879.615 388.229 878.979C389.019 878.419 389.356 877.101 388.682 876.304C384.228 871.015 379.713 865.787 375.168 860.582C375.183 860.475 375.206 860.375 375.221 860.268C375.474 857.853 375.505 855.408 375.122 853.001C374.715 850.61 374.049 848.241 372.998 846.041C371.933 843.849 370.607 841.779 368.974 839.955C367.318 838.154 365.41 836.597 363.309 835.325C361.179 834.114 358.871 833.225 356.487 832.657L355.721 836.137C357.744 836.628 359.699 837.379 361.508 838.406C363.286 839.487 364.912 840.813 366.33 842.346C367.725 843.902 368.859 845.681 369.779 847.559C370.683 849.452 371.243 851.491 371.603 853.553C371.78 854.634 371.849 855.722 371.849 856.811C368.169 852.626 364.475 848.44 360.788 844.27C358.618 841.818 356.441 839.357 354.272 836.896C353.59 836.122 352.509 835.8 351.597 836.444C350.823 836.996 350.455 838.337 351.145 839.119C357.867 846.731 364.605 854.327 371.289 861.97C370.982 863.311 370.592 864.637 370.055 865.91C369.695 866.707 369.304 867.481 368.874 868.247C364.352 863.158 359.852 858.045 355.407 852.886C352.448 849.444 349.512 845.987 346.637 842.477C345.986 841.68 344.851 841.396 343.962 842.024C343.165 842.592 342.851 843.895 343.51 844.7C350.984 853.829 358.764 862.705 366.629 871.513C365.517 872.808 364.283 874.004 362.919 875.031C357.469 868.5 352.072 861.924 346.553 855.454C343.909 852.357 341.233 849.283 338.512 846.248C337.822 845.481 336.749 845.144 335.837 845.796C335.071 846.34 334.687 847.689 335.385 848.471C343.725 857.777 351.612 867.473 359.622 877.063C358.649 877.545 357.652 877.959 356.618 878.297C355.782 878.542 354.931 878.734 354.08 878.879C348.408 872.893 342.843 866.799 337.539 860.482C335.293 857.807 333.085 855.094 330.939 852.334C330.042 851.184 328.578 851.499 327.85 852.35L327.252 852.219C326.792 854.603 326.531 857.033 326.685 859.463C326.869 861.885 327.298 864.3 328.141 866.592C328.992 868.868 330.103 871.061 331.552 873.031C333.016 874.985 334.749 876.733 336.711 878.212C338.704 879.638 340.904 880.765 343.219 881.577C345.557 882.313 347.987 882.727 350.447 882.781C351.114 882.781 351.781 882.743 352.44 882.689C354.832 885.203 357.246 887.702 359.661 890.193C360.381 890.937 361.746 890.691 362.359 889.956C363.08 889.097 362.842 888.001 362.121 887.257C360.389 885.479 358.664 883.685 356.947 881.892C357.193 881.823 357.438 881.769 357.683 881.7C359.17 881.225 360.596 880.589 361.96 879.853C362.175 880.113 362.397 880.374 362.612 880.635C365.272 883.785 367.947 886.92 370.668 890.017C371.35 890.791 372.431 891.113 373.343 890.469C374.118 889.917 374.485 888.576 373.796 887.794C370.89 884.49 368.047 881.141 365.21 877.768C366.598 876.71 367.863 875.499 369.012 874.188C372.286 877.837 375.566 881.478 378.847 885.119C382.036 888.652 385.225 892.186 388.413 895.72C389.103 896.486 390.169 896.824 391.089 896.172C391.855 895.628 392.238 894.271 391.541 893.497L391.548 893.474ZM338.811 875.307C337.148 874.05 335.676 872.555 334.411 870.884C333.17 869.198 332.219 867.312 331.483 865.358C330.763 863.388 330.395 861.303 330.234 859.218C330.195 858.658 330.188 858.099 330.203 857.539C336.19 864.982 342.544 872.126 349.075 879.102C347.465 878.956 345.879 878.642 344.33 878.166C342.368 877.476 340.505 876.518 338.811 875.315V875.307Z" fill="#7F6F6F"/>
<path d="M596.862 661.361C596.862 661.361 545.328 678.271 533.662 682.525C533.662 682.525 522.087 698.254 516.76 705.191H516.652C521.206 720.506 525.237 734.932 528.618 748.692L540.882 745.626C542.875 742.199 546.976 732.909 549.49 727.819L603.278 706.663C603.278 706.663 598.571 720.89 597.368 724.262L604.489 722.285C606.865 714.964 608.644 711.109 612.108 701.711C612.239 701.443 596.877 661.353 596.877 661.353L596.862 661.361ZM545.06 725.949C543.642 728.425 542.147 730.855 540.583 733.246C538.414 736.619 536.053 739.907 533.807 743.334C530.488 730.885 525.759 719.027 521.949 707.077C522.716 705.996 523.543 704.892 524.356 703.811L527.744 699.373L534.574 690.604C535.946 694.728 537.448 698.745 538.859 702.8C540.767 708.227 542.569 713.677 544.178 719.18C544.562 720.56 544.976 721.932 545.344 723.32L545.734 724.761L545.06 725.949ZM550.771 722.292C549.192 716.26 539.096 687.477 539.096 687.477C550.073 683.521 584.398 671.847 593.083 668.858L605.263 699.741L550.763 722.292H550.771Z" fill="#2E100D"/>
<path d="M489.203 916.999C500.21 909.556 511.938 903.324 523.988 897.943L528.526 895.957L530.795 894.969L533.102 894.072C536.176 892.884 539.242 891.657 542.324 890.507L551.66 887.265C554.78 886.215 557.938 885.287 561.081 884.299C573.682 880.504 586.468 877.354 599.361 874.778C612.269 872.226 625.231 870.148 638.439 869.014L638.914 875.016C626.098 876.12 613.235 878.174 600.534 880.688C587.817 883.225 575.223 886.338 562.821 890.063C559.732 891.036 556.627 891.956 553.561 892.983L544.393 896.172C541.365 897.307 538.368 898.502 535.348 899.667L533.087 900.549L530.872 901.522L526.433 903.462C514.652 908.72 503.238 914.791 492.607 921.981L489.203 917.022V916.999Z" fill="#2E100D"/>
<path d="M661.965 790.659C658.055 775.459 634.73 719.433 630.177 708.763L497.437 758.204L489.35 761.224L487.326 761.983C486.981 762.114 486.675 762.221 486.291 762.374L485.034 762.926C483.386 763.708 481.823 764.681 480.45 765.9C479.738 766.475 479.132 767.157 478.496 767.817C477.929 768.529 477.323 769.219 476.848 770.001C475.821 771.511 475.046 773.182 474.487 774.907C473.337 778.372 473.222 782.158 474.05 785.715C474.563 787.647 475.023 788.804 475.476 790.192L476.84 794.262L479.531 802.433C481.309 807.883 483.026 813.348 484.712 818.821C488.039 829.767 491.297 840.775 493.796 851.775L494.263 853.836L494.662 855.883C494.93 857.248 495.214 858.62 495.382 859.946C495.835 862.598 496.026 865.327 496.141 868.079C497.207 893.313 488.108 920.67 468.631 938.139C451.46 953.539 414.866 955.325 388.099 943.49C352.586 927.791 321.472 896.072 309.629 858.788L301.105 862.284C313.861 902.526 345.403 938.599 384.404 953.938C404.38 961.795 429.093 964.155 449.682 958.092C482.252 948.503 500.012 917.926 503.906 885.624C504.458 880.696 504.535 877.614 504.473 872.632C525.76 879.454 549.883 875.537 569.261 864.821C582.805 857.324 598.665 833.914 610.109 830.595C618.043 828.296 642.273 830.833 651.747 824.164C663.245 816.077 665.368 803.935 661.957 790.659H661.965ZM653.403 811.003C650.283 816.821 646.006 819.297 639.781 820.508C629.717 822.47 623.362 820.807 612.876 822.186C605.977 823.099 599.937 825.092 594.878 829.806C590.34 834.022 574.703 851.069 566.194 856.312C551.83 865.166 531.969 872.141 504.481 865.173C504.343 863.019 504.129 860.858 503.768 858.689C503.577 857.156 503.27 855.714 502.986 854.25L502.557 852.066L502.067 849.92C499.468 838.475 496.18 827.399 492.815 816.33C491.113 810.804 489.381 805.3 487.587 799.811L484.881 791.587L483.501 787.478L482.804 785.424C482.528 784.657 482.459 784.274 482.29 783.745C481.823 781.698 481.876 779.529 482.543 777.521C482.873 776.524 483.31 775.551 483.907 774.685C484.168 774.225 484.544 773.841 484.85 773.42C485.226 773.06 485.556 772.638 485.977 772.324C486.751 771.618 487.663 771.067 488.606 770.614L489.319 770.3C489.603 770.185 489.978 770.047 490.3 769.924L492.324 769.173L500.411 766.153L627.724 718.598C631.702 727.957 635.634 737.324 639.383 746.752C643.645 757.491 647.723 768.307 651.241 779.261C653.012 784.765 654.637 790.169 655.327 795.642C656.024 801.061 655.763 806.588 653.387 811.01L653.403 811.003Z" fill="#2E100D"/>
<path d="M677.77 795.036C677.341 779.728 675.148 763.616 671.576 748.761C667.997 733.905 662.945 719.402 656.491 705.551C650.037 691.7 642.18 678.47 632.905 666.274C623.63 654.079 612.921 642.903 600.826 633.375C588.737 623.847 576.258 615.254 561.763 609.835C547.276 604.4 533.501 601.702 518.148 602.813C505.837 596.282 477.545 587.437 453.66 591.139C440.521 593.178 398.669 605.78 381.46 612.702C374.761 615.4 366.551 619.056 361.086 623.778C354.946 629.082 350.04 640.067 349.411 648.108C334.135 657.306 297.977 690.834 293.033 735.737L301.634 736.864C313.262 671.74 359.346 649.142 377.604 643.945C457.622 621.195 503.515 674.606 519.466 702.286L524.479 699.335C511.211 666.934 458.213 616.251 375.918 638.212C368.253 640.258 364.642 641.178 357.46 644.099C357.606 643.064 357.797 642.044 358.073 641.048C358.748 638.572 359.844 636.242 361.323 634.141C362.795 632.033 364.642 630.14 366.72 628.438C367.049 628.178 367.387 627.925 367.724 627.672C374.592 623.862 382.142 621.225 389.9 619.501C397.925 617.722 406.188 616.871 414.459 616.711C422.738 616.557 431.047 617.086 439.264 618.228C447.481 619.37 455.63 621.095 463.571 623.471C479.4 628.3 494.6 635.552 507.823 645.432C514.422 650.376 520.516 655.987 525.79 662.265C531.064 668.543 535.502 675.503 538.737 682.985L543.642 680.877C540.178 672.874 535.448 665.469 529.883 658.839C524.311 652.201 517.918 646.314 511.027 641.155C497.206 630.838 481.5 623.356 465.104 618.359C456.879 615.906 448.478 614.12 440 612.947C431.514 611.766 422.945 611.214 414.36 611.375C410.933 611.444 407.499 611.628 404.073 611.943C404.51 611.805 404.939 611.667 405.376 611.529C405.376 611.529 419.741 606.109 433.484 602.415C438.904 600.958 449.459 598.505 455.07 597.999C460.681 597.517 466.622 597.455 472.256 597.862C483.516 598.774 494.37 601.403 505.002 605.412C508.459 606.684 511.854 608.133 515.189 609.704C515.189 609.704 519.297 611.69 520.562 612.349C523.107 613.621 525.56 615.078 528.028 616.481C530.443 617.991 532.888 619.447 535.226 621.072C537.61 622.628 539.879 624.353 542.178 626.031C544.409 627.795 546.67 629.527 548.817 631.405C553.147 635.1 557.294 639.017 561.135 643.209C568.892 651.526 575.017 659.368 580.313 669.363L586.844 667.286C581.264 656.754 575.714 647.556 567.413 639.101C559.111 630.646 545.505 618.136 531.899 611.797C540.722 613.123 549.407 615.369 557.777 618.504C571.391 623.602 584.138 630.991 595.598 640.028C607.073 649.066 617.291 659.72 626.175 671.395C635.059 683.077 642.609 695.786 648.826 709.123C655.042 722.461 659.917 736.435 663.359 750.738C666.801 765.049 668.832 779.698 669.238 794.377C669.645 809.056 668.556 824.501 665.429 838.789C662.409 852.602 655.732 875.483 651.976 875.284C649.309 874.985 652.942 857.661 653.954 848.578C655.341 836.114 654.391 817.411 653.655 817.618C652.428 817.909 649.6 820.285 647.124 821.972C648.166 832.251 646.856 846.508 645.545 856.688C644.579 864.177 642.647 871.551 643.368 879.14C644.158 887.449 651.164 888.553 656.292 883.202C662.462 876.771 670.917 855.508 674.328 839.679C677.57 824.639 678.214 810.321 677.793 795.021L677.77 795.036Z" fill="#2E100D"/>
<path d="M361.262 794.883L314.174 807.255L362.35 803.79L361.262 794.883Z" fill="#2E100D"/>
<path d="M352.561 761.953L305.473 774.324L353.649 770.852L352.561 761.953Z" fill="#2E100D"/>
<path d="M412.35 908.337C412.35 907.241 411.905 906.167 411.131 905.393C410.357 904.611 409.284 904.174 408.188 904.174C407.091 904.174 406.018 904.619 405.244 905.393C404.462 906.167 404.025 907.241 404.025 908.337C404.025 909.433 404.47 910.506 405.244 911.28C406.018 912.062 407.091 912.499 408.188 912.499C409.284 912.499 410.357 912.054 411.131 911.28C411.913 910.506 412.35 909.433 412.35 908.337H415.914C415.922 910.36 415.086 912.376 413.653 913.802C412.235 915.236 410.211 916.071 408.188 916.063C406.164 916.071 404.148 915.236 402.722 913.802C401.289 912.384 400.453 910.36 400.461 908.337C400.453 906.313 401.289 904.297 402.722 902.871C404.14 901.438 406.164 900.602 408.188 900.61C410.211 900.602 412.227 901.438 413.653 902.871C415.086 904.29 415.922 906.313 415.914 908.337H412.35Z" fill="#7F6F6F"/>
<path fill-rule="evenodd" clip-rule="evenodd" d="M368.091 797.359L348.261 730.594L279.733 732.441L263 843.741C268.389 847.75 297.371 867.427 297.371 867.427C303.818 864.798 367.302 837.509 367.302 837.509C367.302 837.509 368.183 797.604 368.091 797.351V797.359ZM359.176 821.65C359.1 823.766 359.023 825.873 358.901 827.974C358.847 829.024 358.778 830.074 358.709 831.117L358.663 831.76L336.602 841.472L312.211 852.127C308.149 853.882 304.071 855.653 300.023 857.347L298.743 857.876L298.038 857.416C296.198 856.228 294.374 855.009 292.55 853.783C288.909 851.322 285.291 848.8 281.665 846.248L273.019 840.185L276.652 816.323L280.546 789.946C281.818 781.146 283.06 772.347 284.264 763.532L286.027 750.301L287.253 740.651L342.619 740.766L358.218 797.466L359.161 800.54L359.268 800.892V801.053L359.322 802.594C359.368 804.687 359.383 806.802 359.383 808.925C359.383 813.164 359.314 817.411 359.184 821.635L359.176 821.65Z" fill="#2E100D"/>
<path d="M442.739 698.515C440.646 697.626 438.622 696.637 436.637 695.556C438.293 692.421 439.259 689.033 439.534 685.507C440.148 680.271 438.369 674.975 434.153 669.701C429.263 663.584 423.483 660.418 416.753 660.204C410.015 660.043 403.416 662.335 398.28 666.65L372.678 687.117L419.413 745.58L431.877 735.623L415.105 714.635L419.858 710.841L422.701 708.464C425.883 710.243 432.889 714.075 436.737 716.015L442.746 698.523L442.739 698.515ZM394.478 688.834L405.96 679.651C411.717 675.044 416.454 675.105 420.203 679.727C424.204 684.74 422.993 689.815 416.577 694.943L406.068 703.344L394.47 688.834H394.478Z" fill="#E14226"/>
<path d="M466.156 701.397L461.059 701.688L454.574 721.265L460.775 719.349L468.985 712.734L471.561 703.689L466.156 701.397Z" fill="#E14226"/>
<path d="M447.49 700.262L441.289 718.184L449.223 720.905L455.822 701.811L447.49 700.262Z" fill="#E14226"/>
</svg>
